<svg enable-background="new 0 0 24 24" viewBox="0 0 24 24" xmlns="http://www.w3.org/2000/svg" xmlns:xlink="http://www.w3.org/1999/xlink"><linearGradient id="a"><stop offset="0" stop-color="#1cbbe5"/><stop offset="1" stop-color="#6ce3ff"/></linearGradient><linearGradient id="b" gradientUnits="userSpaceOnUse" x1="2.0508" x2="5.1927" xlink:href="#a" y1="17.3707" y2="22.8125"/><linearGradient id="c" gradientUnits="userSpaceOnUse" x1="16.7148" x2="20.9049" xlink:href="#a" y1="1.671" y2="8.9285"/><linearGradient id="d" gradientUnits="userSpaceOnUse" x1="8.0318" x2="13.8505" xlink:href="#a" y1="7.9948" y2="18.0732"/><path d="m2 20c0 1.1.9 2 2 2h2.6l-4.6-4.6z" fill="url(#b)"/><path d="m21.6 5.6-3.2-3.2c-.8-.8-2-.8-2.8 0l-.2.2c-.4.4-.4 1 0 1.4l4.6 4.6c.4.4 1 .4 1.4 0l.2-.2c.8-.8.8-2 0-2.8z" fill="url(#c)"/><path d="m14 5.4c-.4-.4-1-.4-1.4 0l-9.1 9.1c-.5.5-.5 1.1-.1 1.5l4.6 4.6c.4.4 1 .4 1.4 0l9.1-9.1c.4-.4.4-1 0-1.4z" fill="url(#d)"/></svg>