<?xml version="1.0" encoding="utf-8"?>
<!-- Generator: Adobe Illustrator 22.0.1, SVG Export Plug-In . SVG Version: 6.00 Build 0)  -->
<svg version="1.1" id="Layer_1" xmlns="http://www.w3.org/2000/svg" xmlns:xlink="http://www.w3.org/1999/xlink" x="0px" y="0px"
	 viewBox="0 0 24 24" style="enable-background:new 0 0 24 24;" xml:space="preserve">
<style type="text/css">
	.st0{fill:url(#SVGID_1_);}
	.st1{fill:url(#SVGID_2_);}
	.st2{fill:url(#SVGID_3_);}
</style>
<g id="info">
</g>
<g id="icons">
	<g id="edit">
		<linearGradient id="SVGID_1_" gradientUnits="userSpaceOnUse" x1="2.0508" y1="17.3707" x2="5.1927" y2="22.8125">
			<stop  offset="0" style="stop-color:#1CBBE5"/>
			<stop  offset="1" style="stop-color:#6CE3FF"/>
		</linearGradient>
		<path class="st0" d="M2,20c0,1.1,0.9,2,2,2h2.6L2,17.4V20z"/>
		<linearGradient id="SVGID_2_" gradientUnits="userSpaceOnUse" x1="16.7148" y1="1.671" x2="20.9049" y2="8.9285">
			<stop  offset="0" style="stop-color:#1CBBE5"/>
			<stop  offset="1" style="stop-color:#6CE3FF"/>
		</linearGradient>
		<path class="st1" d="M21.6,5.6l-3.2-3.2c-0.8-0.8-2-0.8-2.8,0l-0.2,0.2C15,3,15,3.6,15.4,4L20,8.6c0.4,0.4,1,0.4,1.4,0l0.2-0.2
			C22.4,7.6,22.4,6.4,21.6,5.6z"/>
		<linearGradient id="SVGID_3_" gradientUnits="userSpaceOnUse" x1="8.0318" y1="7.9948" x2="13.8505" y2="18.0732">
			<stop  offset="0" style="stop-color:#1CBBE5"/>
			<stop  offset="1" style="stop-color:#6CE3FF"/>
		</linearGradient>
		<path class="st2" d="M14,5.4c-0.4-0.4-1-0.4-1.4,0l-9.1,9.1C3,15,3,15.6,3.4,16L8,20.6c0.4,0.4,1,0.4,1.4,0l9.1-9.1
			c0.4-0.4,0.4-1,0-1.4L14,5.4z"/>
	</g>
</g>
</svg>
