<svg enable-background="new 0 0 32 32" viewBox="0 0 32 32" xmlns="http://www.w3.org/2000/svg" xmlns:xlink="http://www.w3.org/1999/xlink"><linearGradient id="a" gradientUnits="userSpaceOnUse" x1="6.4483" x2="22.8312" y1="1.5894" y2="29.9654"><stop offset="0" stop-color="#1cbbe5"/><stop offset="1" stop-color="#6ce3ff"/></linearGradient><path d="m21 25.9v2.1h2c1.1 0 2-.9 2-2v-17h-5c-1.1 0-2-.9-2-2v-6h-10c-1.1 0-2 .9-2 2v23c0 1.1.9 2 2 2h8v-2.1c-.6-.6-1-1.5-1-2.4 0-1.9 1.6-3.5 3.5-3.5s3.5 1.6 3.5 3.5c0 1-.4 1.8-1 2.4zm-4 .8v4.9l1.5-1.5 1.5 1.5v-4.9c-.5.2-1 .3-1.5.3s-1-.1-1.5-.3zm2-25.7v6c0 .6.5 1 1 1h5zm-10 7v1h7v-1zm0-3v1h7v-1zm0 6v1h13v-1zm0 3v1h13v-1zm0 3v1h13v-1zm9.5 9c1.4 0 2.5-1.1 2.5-2.5s-1.1-2.5-2.5-2.5-2.5 1.1-2.5 2.5 1.1 2.5 2.5 2.5z" fill="url(#a)"/></svg>