<svg enable-background="new 0 0 24 24" viewBox="0 0 24 24" xmlns="http://www.w3.org/2000/svg" xmlns:xlink="http://www.w3.org/1999/xlink"><linearGradient id="a"><stop offset="0" stop-color="#1cbbe5"/><stop offset="1" stop-color="#6ce3ff"/></linearGradient><linearGradient id="b" gradientUnits="userSpaceOnUse" x1="1.4517" x2="6.5483" xlink:href="#a" y1="12.5863" y2="21.4137"/><linearGradient id="c" gradientUnits="userSpaceOnUse" x1="7.2867" x2="16.7133" xlink:href="#a" y1="3.8363" y2="20.1637"/><linearGradient id="d" gradientUnits="userSpaceOnUse" x1="16.5857" x2="23.4143" xlink:href="#a" y1="9.0863" y2="20.9137"/><path d="m5 12h-2c-1.1 0-2 .9-2 2v6c0 1.1.9 2 2 2h2c1.1 0 2-.9 2-2v-6c0-1.1-.9-2-2-2z" fill="url(#b)"/><path d="m13 2h-2c-1.1 0-2 .9-2 2v16c0 1.1.9 2 2 2h2c1.1 0 2-.9 2-2v-16c0-1.1-.9-2-2-2z" fill="url(#c)"/><path d="m21 8h-2c-1.1 0-2 .9-2 2v10c0 1.1.9 2 2 2h2c1.1 0 2-.9 2-2v-10c0-1.1-.9-2-2-2z" fill="url(#d)"/></svg>