<?xml version="1.0" encoding="utf-8"?>
<!-- Generator: Adobe Illustrator 22.0.1, SVG Export Plug-In . SVG Version: 6.00 Build 0)  -->
<svg version="1.1" id="Layer_1" xmlns="http://www.w3.org/2000/svg" xmlns:xlink="http://www.w3.org/1999/xlink" x="0px" y="0px"
	 viewBox="0 0 24 24" style="enable-background:new 0 0 24 24;" xml:space="preserve">
<style type="text/css">
	.st0{fill:url(#SVGID_1_);}
	.st1{fill:url(#SVGID_2_);}
	.st2{fill:url(#SVGID_3_);}
</style>
<g id="info">
</g>
<g id="icons">
	<g id="statistics">
		<linearGradient id="SVGID_1_" gradientUnits="userSpaceOnUse" x1="1.4517" y1="12.5863" x2="6.5483" y2="21.4137">
			<stop  offset="0" style="stop-color:#1CBBE5"/>
			<stop  offset="1" style="stop-color:#6CE3FF"/>
		</linearGradient>
		<path class="st0" d="M5,12H3c-1.1,0-2,0.9-2,2v6c0,1.1,0.9,2,2,2h2c1.1,0,2-0.9,2-2v-6C7,12.9,6.1,12,5,12z"/>
		<linearGradient id="SVGID_2_" gradientUnits="userSpaceOnUse" x1="7.2867" y1="3.8363" x2="16.7133" y2="20.1637">
			<stop  offset="0" style="stop-color:#1CBBE5"/>
			<stop  offset="1" style="stop-color:#6CE3FF"/>
		</linearGradient>
		<path class="st1" d="M13,2h-2C9.9,2,9,2.9,9,4v16c0,1.1,0.9,2,2,2h2c1.1,0,2-0.9,2-2V4C15,2.9,14.1,2,13,2z"/>
		<linearGradient id="SVGID_3_" gradientUnits="userSpaceOnUse" x1="16.5857" y1="9.0863" x2="23.4143" y2="20.9137">
			<stop  offset="0" style="stop-color:#1CBBE5"/>
			<stop  offset="1" style="stop-color:#6CE3FF"/>
		</linearGradient>
		<path class="st2" d="M21,8h-2c-1.1,0-2,0.9-2,2v10c0,1.1,0.9,2,2,2h2c1.1,0,2-0.9,2-2V10C23,8.9,22.1,8,21,8z"/>
	</g>
</g>
</svg>
