<svg enable-background="new 0 0 24 24" viewBox="0 0 24 24" xmlns="http://www.w3.org/2000/svg" xmlns:xlink="http://www.w3.org/1999/xlink"><linearGradient id="a"><stop offset="0" stop-color="#0fb8ad"/><stop offset=".9995" stop-color="#2cb5e8"/></linearGradient><linearGradient id="b" gradientTransform="matrix(1 0 0 -1 0 26)" gradientUnits="userSpaceOnUse" x1=".66" x2="23.3609" xlink:href="#a" y1="6.7274" y2="19.8338"/><linearGradient id="c" gradientTransform="matrix(1 0 0 -1 0 26)" gradientUnits="userSpaceOnUse" x1="12.4865" x2="23.3238" xlink:href="#a" y1="10.4627" y2="16.7196"/><linearGradient id="d" gradientTransform="matrix(1 0 0 -1 0 26)" gradientUnits="userSpaceOnUse" x1="8.7423" x2="15.226" xlink:href="#a" y1="15.1692" y2="18.9125"/><linearGradient id="e" gradientTransform="matrix(1 0 0 -1 0 26)" gradientUnits="userSpaceOnUse" x1="8.7082" x2="15.1918" xlink:href="#a" y1="15.2283" y2="18.9717"/><linearGradient id="f" gradientTransform="matrix(1 0 0 -1 0 26)" gradientUnits="userSpaceOnUse" x1="4.2335" x2="7.8812" xlink:href="#a" y1="12.5223" y2="14.6284"/><linearGradient id="g" gradientTransform="matrix(1 0 0 -1 0 26)" gradientUnits="userSpaceOnUse" x1="4.3334" x2="7.9815" xlink:href="#a" y1="12.5223" y2="14.6285"/><linearGradient id="h" gradientTransform="matrix(1 0 0 -1 0 26)" gradientUnits="userSpaceOnUse" x1="2.6725" x2="9.6275" xlink:href="#a" y1="6.1423" y2="10.1577"/><linearGradient id="i" gradientTransform="matrix(1 0 0 -1 0 26)" gradientUnits="userSpaceOnUse" x1="12.4135" x2="23.2508" xlink:href="#a" y1="10.4159" y2="16.6728"/><linearGradient id="j" gradientTransform="matrix(1 0 0 -1 0 26)" gradientUnits="userSpaceOnUse" x1="14.5025" x2="21.1975" xlink:href="#a" y1="6.2173" y2="10.0827"/><linearGradient id="k" gradientTransform="matrix(1 0 0 -1 0 26)" gradientUnits="userSpaceOnUse" x1="7.8124" x2="11.4047" xlink:href="#a" y1="4.7981" y2="6.8722"/><linearGradient id="l" gradientTransform="matrix(1 0 0 -1 0 26)" gradientUnits="userSpaceOnUse" x1="13.8901" x2="14.9494" xlink:href="#a" y1="5.5556" y2="6.1671"/><linearGradient id="m" gradientTransform="matrix(1 0 0 -1 0 26)" gradientUnits="userSpaceOnUse" x1="6.4485" x2="17.5725" y1="22.9142" y2="3.6469"><stop offset="0" stop-color="#1cbbe5"/><stop offset="1" stop-color="#6ce3ff"/></linearGradient><path d="m23.8 17.6c-.1-.1-2.7-1.6-5.8-1.6-.3 0-.6 0-1 0 .7-.4 1.5-.9 2.2-1.4 3.3-2.6 4.7-6.8 4.8-7s0-.3-.1-.5c-.1-.1-.3-.1-.5-.1-.1 0-3.5.6-6.7 3.4-.8.8-1.6 1.6-2.3 2.4.4-1.1.6-2.4.6-3.8 0-4.8-2.5-8.6-2.6-8.8-.2-.3-.7-.3-.8 0-.1.2-2.6 4-2.6 8.8 0 1.4.2 2.7.5 3.8-.7-.8-1.4-1.7-2.3-2.4-3.1-2.8-6.5-3.4-6.6-3.4-.2 0-.4 0-.5.2-.1.1-.1.3-.1.4.1.2 1.5 4.4 4.8 7 .7.5 1.4 1 2.2 1.4-.3 0-.6 0-1 0-3.1 0-5.7 1.5-5.8 1.6-.1.1-.2.2-.2.4s.1.3.2.4 2.7 1.6 5.8 1.6c.7 0 1.4-.1 2-.3-1 1.3-1 2.7-1 2.8 0 .2.1.3.2.4s.2.1.3.1h.1c.1 0 1.9-.6 3.2-2.2.2-.3.4-.6.6-.8v3.5c0 .3.2.5.5.5s.5-.2.5-.5v-3.5c.2.3.4.6.6.8 1.4 1.6 3.2 2.1 3.2 2.2h.1c.1 0 .2 0 .3-.1s.2-.2.2-.4c0-.1 0-1.5-1-2.8.7.2 1.3.3 2 .3 3.1 0 5.7-1.5 5.8-1.6s.2-.3.2-.4.1-.3 0-.4z" fill="url(#b)"/><path d="m17.4 11.1c2-1.8 4.1-2.6 5.3-2.9-.6 1.3-1.9 3.9-4.1 5.6-1.8 1.4-4.2 2.4-5.5 2.8.8-1.3 2.4-3.7 4.3-5.5z" fill="url(#c)"/><path d="m10 9c0-3.3 1.3-6.2 2-7.5.7 1.3 2 4.2 2 7.5 0 3.2-1.2 6-1.9 7.3l-.1.1-.1-.1c-.7-1.3-1.9-4.1-1.9-7.3z" fill="url(#d)"/><path d="m12 1.5c-.7 1.3-2 4.2-2 7.5 0 3.2 1.2 6 1.9 7.3-.5-1-1.5-3.2-1.5-5.6 0-2.5 1-4.8 1.5-5.7.5 1 1.5 3.2 1.5 5.7 0 2.4-.9 4.6-1.5 5.6.9-1.3 2.1-4.1 2.1-7.3 0-3.3-1.3-6.2-2-7.5z" fill="url(#e)" opacity=".2"/><path d="m1.3 8.2c1.2.3 3.3 1.1 5.2 2.9 2 1.8 3.6 4.2 4.4 5.5-1.4-.5-3.7-1.4-5.5-2.8-2.2-1.7-3.5-4.3-4.1-5.6z" fill="url(#f)"/><path d="m6.7 14.6c-1.7-1.3-2.7-3.1-3.2-4.1.9.2 2.5.8 4.1 2.1 1.5 1.3 2.8 3 3.4 4-.8-1.4-2.4-3.7-4.4-5.5s-4.1-2.6-5.2-2.9c.6 1.3 1.9 3.9 4.1 5.6.9.7 1.8 1.2 2.8 1.7-.6-.2-1.2-.5-1.6-.9z" fill="url(#g)" opacity=".2"/><path d="m1.6 18c.9-.4 2.6-1 4.4-1s3.6.4 4.7.7c-1.1.5-2.9 1.3-4.7 1.3s-3.4-.6-4.4-1z" fill="url(#h)"/><path d="m3 18.2c.8-.3 2.2-.7 3.7-.7 1.3 0 2.6.2 3.5.4.2-.1.3-.2.5-.2-1.1-.3-2.9-.7-4.7-.7s-3.5.6-4.4 1c.9.4 2.6 1 4.4 1h.4c-1.4-.1-2.7-.5-3.4-.8z" fill="url(#h)" opacity=".2"/><path d="m17.3 14.6c1.7-1.3 2.7-3.1 3.2-4.1-.9.2-2.5.8-4.1 2.1-1.5 1.3-2.8 3-3.4 4 .8-1.4 2.4-3.7 4.4-5.5s4.1-2.6 5.2-2.9c-.6 1.3-1.9 3.9-4.1 5.6-.9.7-1.8 1.2-2.8 1.7.6-.2 1.2-.5 1.6-.9z" fill="url(#i)" opacity=".2"/><path d="m21 18.2c-.8-.3-2.2-.7-3.7-.7-1.3 0-2.6.2-3.5.4-.2-.1-.3-.2-.5-.2 1.1-.3 2.9-.7 4.7-.7s3.5.6 4.4 1c-.9.4-2.6 1-4.4 1-.1 0-.3 0-.4 0 1.4-.1 2.7-.5 3.4-.8z" fill="url(#j)" opacity=".2"/><path d="m10.1 20.2c-.7.8-1.5 1.3-2 1.5.1-.5.5-1.3 1.2-1.8.8-.6 1.4-1 1.8-1.3-.2.5-.5 1-1 1.6z" fill="url(#k)"/><path d="m13.9 20.2c-.5-.5-.8-1.1-1-1.6.5.3 1.1.7 1.8 1.3s1.1 1.3 1.2 1.8c-.6-.3-1.4-.8-2-1.5z" fill="url(#l)"/><path d="m18 19c-1.8 0-3.6-.8-4.7-1.3 1.1-.3 2.9-.7 4.7-.7s3.5.6 4.4 1c-.9.4-2.6 1-4.4 1z" fill="url(#j)"/><path d="m23.8 17.6c-.1-.1-2.7-1.6-5.8-1.6-.3 0-.6 0-1 0 .7-.4 1.5-.9 2.2-1.4 3.3-2.6 4.7-6.8 4.8-7s0-.3-.1-.5c-.1-.1-.3-.1-.5-.1-.1 0-3.5.6-6.7 3.4-.8.8-1.6 1.6-2.3 2.4.4-1.1.6-2.4.6-3.8 0-4.8-2.5-8.6-2.6-8.8-.2-.3-.7-.3-.8 0-.1.2-2.6 4-2.6 8.8 0 1.4.2 2.7.5 3.8-.7-.8-1.4-1.7-2.3-2.4-3.1-2.8-6.5-3.4-6.6-3.4-.2 0-.4 0-.5.2-.1.1-.1.3-.1.4.1.2 1.5 4.4 4.8 7 .7.5 1.4 1 2.2 1.4-.3 0-.6 0-1 0-3.1 0-5.7 1.5-5.8 1.6-.1.1-.2.2-.2.4s.1.3.2.4 2.7 1.6 5.8 1.6c.7 0 1.4-.1 2-.3-1 1.3-1 2.7-1 2.8 0 .2.1.3.2.4s.2.1.3.1h.1c.1 0 1.9-.6 3.2-2.2.2-.3.4-.6.6-.8v3.5c0 .3.2.5.5.5s.5-.2.5-.5v-3.5c.2.3.4.6.6.8 1.4 1.6 3.2 2.1 3.2 2.2h.1c.1 0 .2 0 .3-.1s.2-.2.2-.4c0-.1 0-1.5-1-2.8.7.2 1.3.3 2 .3 3.1 0 5.7-1.5 5.8-1.6s.2-.3.2-.4.1-.3 0-.4z" fill="url(#m)"/></svg>