<svg enable-background="new 0 0 600 151.875" height="151.875" viewBox="0 0 600 151.875" width="600" xmlns="http://www.w3.org/2000/svg"><g clip-rule="evenodd" fill-rule="evenodd"><path d="m445.291 0h40.258c5.461 0 9.93 4.468 9.93 9.929v115.658c0 5.462-4.469 9.931-9.93 9.931h-40.258c-5.461 0-9.928-4.469-9.928-9.931v-115.658c0-5.461 4.467-9.929 9.928-9.929zm23.401 22.915v89.733c0 4.238-5.45 4.267-5.45 0v-89.733c0-4.29 5.45-4.337 5.45 0zm-89.618-22.915h40.258c5.461 0 9.931 4.468 9.931 9.929v44.207h-26.787v-31.221c0-4.337-5.45-4.29-5.45 0v89.733c0 4.267 5.45 4.238 5.45 0v-31.528h26.787v44.468c0 5.462-4.47 9.931-9.931 9.931h-40.258c-5.461 0-9.928-4.469-9.928-9.931v-115.659c0-5.461 4.467-9.929 9.928-9.929zm122.298 135.518v-135.518h37.583l14.144 66.934v-66.934h23.034v135.518h-35.966l-13.74-67.377v67.377z" fill="#e48131"/><path d="m445.291 0h40.258c5.461 0 9.93 4.468 9.93 9.929v40.522c-8.703-.407-17.645-.033-26.786 1.146v-28.682c0-4.337-5.45-4.29-5.45 0v29.48c-9.119 1.484-18.427 3.764-27.879 6.872v-49.338c-.001-5.461 4.466-9.929 9.927-9.929zm-76.145 84.963c9.044-2.799 18.322-6.131 27.879-10.019v-52.03c0-4.29 5.45-4.337 5.45 0v31.221h26.787v-44.206c0-5.461-4.47-9.929-9.931-9.929h-40.258c-5.461 0-9.928 4.468-9.928 9.929v75.034zm132.226-34.114c18.466 1.628 35.781 6.816 51.55 15.252l-13.967-66.101h-37.583zm51.727 15.346c8.108 4.354 15.803 9.567 23.034 15.599v-81.794h-23.034z" fill="#f2962e"/><path d="m220.583 135.518v-135.518h37.996l14.299 66.934v-66.934h23.288v135.518h-36.362l-13.891-67.377v67.377zm-82.594 0v-135.518h37.996l14.299 66.934v-66.934h23.288v135.518h-36.362l-13.891-67.377v67.377zm-128.059-135.518h40.257c5.462 0 9.93 4.468 9.93 9.929v44.207h-26.786v-31.221c0-4.337-5.451-4.29-5.451 0v89.733c0 4.267 5.451 4.238 5.451 0v-31.528h26.787v44.468c0 5.462-4.469 9.931-9.93 9.931h-40.258c-5.462 0-9.93-4.469-9.93-9.931v-115.659c0-5.461 4.468-9.929 9.93-9.929zm53.816 135.518 13.462-135.518h36.921l20.576 135.518h-30.265l-3.015-26.963h-9.621l-3.322 26.963zm37.035-45.647-4.182-45.085-4.465 45.085zm197.854 45.647 13.461-135.518h36.92l20.577 135.518h-23.951v-13.063c4.595-1.286 6.841-5.746 6.841-10.536v-13.007c0-1.562-.466-2.726-2.673-2.726h-15.235c-.486.044-.656.174-.663 1.031-.022 3.297 1.605 4.85 5.335 4.85h5.142c.612 0 .588 1.588 0 1.588h-6.758c-3.878 0-5.515-2.786-5.515-6.179v-1.953c0-.472.18-.916.927-.916h11.549l3.867-23.533c.776-4.729-5.908-6.007-6.724-1.073l-3.812 23.021h-1.406l-1.7-25.628c-.308-4.994-7.12-4.493-6.804.29l1.616 24.325v9.983h-1.422v-12.357c0-1.876-1.534-3.411-3.409-3.411-1.878 0-3.412 1.535-3.412 3.411v12.356h-1.362v-10.806c0-1.908-1.562-3.468-3.467-3.468h-.003c-1.906 0-3.467 1.56-3.467 3.468v18.508c-.407 5.092.654 10.735 6.764 12.542v13.283z" fill="#78a64f"/><path d="m220.583 82.019v-82.019h37.996l14.299 66.934v-66.934h23.288v96.332c-15.39-.169-30.467-2.044-45.572-5.49l-4.68-22.7v21.578c-8.405-2.095-16.828-4.668-25.331-7.701zm-220.583 3.323c9.169-5.775 18.453-10.732 27.879-14.873v-47.554c0-4.29 5.451-4.337 5.451 0v31.221h26.787v-44.207c0-5.461-4.468-9.929-9.93-9.929h-40.257c-5.462 0-9.93 4.468-9.93 9.929zm71.52-28.079c7.91-1.365 15.937-2.223 24.098-2.571l.981-9.906.913 9.841c8.2-.272 16.534-.042 25.017.693l-8.401-55.32h-36.92zm66.469-.08c22.251 3.431 45.539 10.147 70.113 20.082 1.828.739 3.651 1.456 5.469 2.153v-79.418h-23.288v66.934l-14.299-66.934h-37.996v57.183zm164.54 39.12c3.498-.068 7.017-.228 10.557-.476v-4.643c0-1.908 1.561-3.468 3.467-3.468h.003c1.905 0 3.467 1.56 3.467 3.468v4.049c.453-.046.906-.091 1.362-.139v-5.46c0-1.876 1.534-3.411 3.412-3.411 1.875 0 3.409 1.535 3.409 3.411v4.613c.474-.065.946-.135 1.422-.203v-2.037l-1.616-24.325c-.316-4.782 6.496-5.284 6.804-.29l1.696 25.546c.488-.086.979-.175 1.468-.265l3.755-22.674c.815-4.935 7.502-3.656 6.724 1.073l-3.325 20.186c5.616-1.198 11.311-2.611 17.095-4.246l-13.213-87.012h-36.92z" fill="#95c049"/><g fill="#f2962e"><path d="m7.891 151.66h-3.778l-3.645-13.21h3.667c1.031 4.69 1.73 8.048 2.098 10.073h.044c.191-1.268.95-4.625 2.275-10.073h3.733c1.171 5.344 1.841 8.676 2.01 9.995h.044c.117-1 .839-4.331 2.165-9.995h3.49l-3.977 13.21h-3.711c-.987-4.332-1.539-6.802-1.661-7.405-.121-.605-.246-1.428-.372-2.474h-.044c-.264 1.478-.552 2.822-.861 4.038zm556.827-.628.706-2.489c1.275.575 2.571.862 3.889.862.759 0 1.352-.127 1.773-.382.425-.255.635-.604.635-1.049 0-.397-.192-.731-.574-.999-.383-.269-1.046-.543-1.988-.823-2.844-.836-4.264-2.149-4.264-3.939 0-1.156.522-2.111 1.568-2.858s2.437-1.12 4.175-1.12c1.517 0 2.841.229 3.976.686l-.771 2.411c-1.039-.432-2.121-.647-3.248-.647-.692 0-1.234.118-1.623.354-.392.234-.586.542-.586.921 0 .347.165.641.492.885.33.245 1.112.566 2.357.957 1.378.432 2.386.965 3.022 1.602.638.637.953 1.431.953 2.378 0 1.215-.537 2.201-1.611 2.96-1.075.757-2.579 1.137-4.507 1.137-1.65-.004-3.11-.286-4.374-.847zm-14.313 0 .707-2.489c1.274.575 2.569.862 3.888.862.758 0 1.351-.127 1.775-.382.423-.255.633-.604.633-1.049 0-.397-.19-.731-.575-.999-.383-.269-1.044-.543-1.988-.823-2.841-.836-4.263-2.149-4.263-3.939 0-1.156.523-2.111 1.57-2.858 1.043-.747 2.437-1.12 4.174-1.12 1.518 0 2.842.229 3.977.686l-.774 2.411c-1.037-.432-2.12-.647-3.246-.647-.692 0-1.233.118-1.625.354-.39.234-.584.542-.584.921 0 .347.166.641.493.885.327.245 1.112.566 2.355.957 1.377.432 2.386.965 3.022 1.602s.955 1.431.955 2.378c0 1.215-.537 2.201-1.614 2.96-1.074.757-2.576 1.137-4.507 1.137-1.649-.004-3.106-.286-4.373-.847zm-4.46-7.389v2.45h-5.721v3.097h6.384v2.47h-9.807v-13.21h9.497v2.469h-6.074v2.725h5.721zm-23.7 8.017h-3.157v-13.21h4.064l3.589 5.398c.685 1.053 1.403 2.389 2.153 4.009h.044c-.177-1.385-.265-3.201-.265-5.449v-3.958h3.159v13.21h-3.624c-2.525-3.888-4.031-6.233-4.516-7.033-.486-.8-.99-1.734-1.515-2.806h-.088c.104 1.665.154 3.58.154 5.742v4.097zm-11.549-13.21h3.423v13.21h-3.423zm-14.866 12.582.708-2.489c1.273.575 2.569.862 3.888.862.758 0 1.351-.127 1.775-.382.422-.255.632-.604.632-1.049 0-.397-.192-.731-.574-.999-.383-.269-1.046-.543-1.988-.823-2.842-.836-4.263-2.149-4.263-3.939 0-1.156.523-2.111 1.567-2.858 1.046-.747 2.438-1.12 4.175-1.12 1.519 0 2.844.229 3.978.686l-.773 2.411c-1.037-.432-2.121-.647-3.249-.647-.691 0-1.231.118-1.622.354-.39.234-.587.542-.587.921 0 .347.166.641.496.885.327.245 1.109.566 2.354.957 1.378.432 2.386.965 3.022 1.602s.953 1.431.953 2.378c0 1.215-.537 2.201-1.611 2.96-1.075.757-2.576 1.137-4.507 1.137-1.649-.004-3.106-.286-4.374-.847zm-16.984-12.582h3.424v7.486c0 1.149.243 2.028.729 2.636s1.185.912 2.099.912c1.928 0 2.895-1.182 2.895-3.548v-7.486h3.423v7.33c0 1.992-.549 3.505-1.646 4.54s-2.691 1.556-4.783 1.556c-4.093 0-6.141-2.046-6.141-6.136zm-15.659 13.15v-12.975c1.2-.195 2.687-.294 4.462-.294 2.282 0 3.91.311 4.883.931.971.621 1.457 1.429 1.457 2.422 0 .62-.21 1.175-.633 1.668-.424.493-1.039.872-1.842 1.133v.04c.944.223 1.679.62 2.209 1.198.531.578.796 1.265.796 2.056 0 1.155-.544 2.113-1.634 2.875-1.09.76-3.078 1.142-5.966 1.142-1.441-.001-2.687-.065-3.732-.196zm3.38-10.975v3.038h1.147c.907 0 1.605-.144 2.094-.431.491-.288.734-.686.734-1.195 0-1.007-.824-1.51-2.475-1.51-.683 0-1.183.032-1.5.098zm0 5.194v3.685c.184.039.639.059 1.369.059.935 0 1.667-.163 2.193-.489.526-.327.789-.798.789-1.412 0-.601-.274-1.059-.818-1.371-.544-.313-1.317-.471-2.319-.471h-1.214zm-22.817 5.213.705-2.489c1.274.575 2.572.862 3.89.862.759 0 1.352-.127 1.773-.382.425-.255.635-.604.635-1.049 0-.397-.192-.731-.575-.999-.382-.269-1.046-.543-1.987-.823-2.844-.836-4.264-2.149-4.264-3.939 0-1.156.522-2.111 1.568-2.858s2.437-1.12 4.175-1.12c1.517 0 2.841.229 3.976.686l-.772 2.411c-1.039-.432-2.12-.647-3.248-.647-.691 0-1.233.118-1.623.354-.392.234-.586.542-.586.921 0 .347.166.641.493.885.327.245 1.112.566 2.357.957 1.378.432 2.386.965 3.022 1.602s.953 1.431.953 2.378c0 1.215-.537 2.201-1.612 2.96-1.074.757-2.578 1.137-4.506 1.137-1.649-.004-3.109-.286-4.374-.847zm-4.46-7.389v2.45h-5.723v3.097h6.384v2.47h-9.807v-13.21h9.499v2.469h-6.076v2.725h5.723zm-13.429 1.293c0 2.098-.692 3.777-2.081 5.041-1.388 1.264-3.212 1.898-5.475 1.898-2.193 0-3.96-.632-5.3-1.889-1.34-1.259-2.011-2.868-2.011-4.835 0-2.012.699-3.668 2.099-4.969 1.397-1.299 3.202-1.949 5.411-1.949 2.225 0 4.007.627 5.347 1.881 1.34 1.256 2.01 2.863 2.01 4.822zm-11.265.138c0 1.293.349 2.353 1.05 3.175.699.824 1.616 1.235 2.749 1.235 1.165 0 2.092-.408 2.783-1.226.692-.816 1.04-1.892 1.04-3.224 0-1.28-.348-2.336-1.044-3.165-.694-.829-1.614-1.245-2.758-1.245-1.147 0-2.071.416-2.771 1.248-.701.834-1.049 1.901-1.049 3.202zm-20.827 6.526v-12.975c1.473-.195 3.047-.294 4.725-.294 3.176 0 5.453.588 6.835 1.768 1.38 1.179 2.067 2.721 2.067 4.621 0 2.248-.782 3.989-2.354 5.224s-4 1.852-7.275 1.852c-1.518-.001-2.851-.065-3.998-.196zm3.422-10.818v8.604c.192.04.604.059 1.235.059 1.703 0 3.021-.398 3.952-1.191.931-.794 1.395-1.931 1.395-3.413 0-1.36-.422-2.396-1.273-3.107s-2.076-1.067-3.675-1.067c-.67-.002-1.214.036-1.634.115zm-16.763 10.878h-3.425v-5.449l-4.86-7.761h3.934c1.805 3.639 2.737 5.533 2.807 5.684.336-.81 1.258-2.705 2.759-5.684h3.888l-5.102 7.644v5.566zm-22.043 0v-13.034c1.251-.195 2.79-.294 4.617-.294 2.253 0 3.871.33 4.857.99.988.659 1.481 1.604 1.481 2.832 0 .731-.247 1.392-.745 1.982-.495.591-1.141 1.009-1.928 1.251v.079c.926.306 1.596 1.116 2.01 2.43.759 2.365 1.172 3.62 1.236 3.764h-3.489c-.295-.491-.648-1.516-1.062-3.078-.206-.784-.484-1.332-.838-1.646-.354-.312-.92-.47-1.701-.47h-1.061v5.194zm3.379-10.995v3.625h1.412c.856 0 1.528-.173 2.023-.517.493-.343.738-.803.738-1.384 0-.582-.221-1.033-.665-1.349-.446-.317-1.079-.475-1.897-.475-.803.001-1.34.034-1.611.1zm-14.865 10.995v-10.683h-4.175v-2.527h11.839v2.527h-4.241v10.683zm-17.89-.628.708-2.489c1.273.575 2.569.862 3.887.862.759 0 1.352-.127 1.773-.382.425-.255.635-.604.635-1.049 0-.397-.192-.731-.575-.999-.383-.269-1.046-.543-1.987-.823-2.842-.836-4.264-2.149-4.264-3.939 0-1.156.521-2.111 1.567-2.858s2.439-1.12 4.175-1.12c1.518 0 2.844.229 3.979.686l-.774 2.411c-1.039-.432-2.12-.647-3.248-.647-.692 0-1.233.118-1.623.354-.389.234-.586.542-.586.921 0 .347.166.641.493.885.329.245 1.112.566 2.357.957 1.377.432 2.386.965 3.022 1.602s.953 1.431.953 2.378c0 1.215-.537 2.201-1.612 2.96-1.074.757-2.576 1.137-4.506 1.137-1.651-.004-3.108-.286-4.374-.847zm-16.985-12.582h3.423v7.486c0 1.149.243 2.028.729 2.636.487.607 1.186.912 2.099.912 1.929 0 2.893-1.182 2.893-3.548v-7.486h3.425v7.33c0 1.992-.548 3.505-1.645 4.54s-2.691 1.556-4.783 1.556c-4.095 0-6.141-2.046-6.141-6.136zm-17.913 13.15v-12.975c1.472-.195 3.049-.294 4.727-.294 3.173 0 5.454.588 6.833 1.768 1.38 1.179 2.069 2.721 2.069 4.621 0 2.248-.785 3.989-2.356 5.224-1.572 1.234-3.998 1.852-7.275 1.852-1.516-.001-2.849-.065-3.998-.196zm3.425-10.818v8.604c.191.04.604.059 1.237.059 1.701 0 3.018-.398 3.949-1.191.934-.794 1.396-1.931 1.396-3.413 0-1.36-.422-2.396-1.273-3.107-.85-.712-2.076-1.067-3.673-1.067-.672-.002-1.217.036-1.636.115zm-17.979 10.878h-3.159v-13.21h4.064l3.59 5.398c.685 1.053 1.402 2.389 2.154 4.009h.043c-.176-1.385-.265-3.201-.265-5.449v-3.958h3.159v13.21h-3.623c-2.526-3.888-4.032-6.233-4.518-7.033s-.99-1.734-1.513-2.806h-.088c.103 1.665.155 3.58.155 5.742v4.097zm-11.551-13.21h3.423v13.21h-3.423zm-19.437 12.582.706-2.489c1.274.575 2.57.862 3.888.862.759 0 1.351-.127 1.774-.382s.633-.604.633-1.049c0-.397-.191-.731-.574-.999-.383-.269-1.046-.543-1.988-.823-2.842-.836-4.263-2.149-4.263-3.939 0-1.156.523-2.111 1.568-2.858s2.438-1.12 4.175-1.12c1.517 0 2.842.229 3.976.686l-.773 2.411c-1.038-.432-2.121-.647-3.247-.647-.692 0-1.233.118-1.624.354-.39.234-.585.542-.585.921 0 .347.166.641.494.885.327.245 1.111.566 2.356.957 1.377.432 2.386.965 3.022 1.602.637.637.954 1.431.954 2.378 0 1.215-.538 2.201-1.613 2.96-1.076.757-2.577 1.137-4.506 1.137-1.649-.004-3.107-.286-4.373-.847zm-7.84-12.582h3.423v13.21h-3.423zm-15.659 13.15v-12.975c1.2-.195 2.688-.294 4.462-.294 2.283 0 3.91.311 4.882.931.972.621 1.458 1.429 1.458 2.422 0 .62-.209 1.175-.633 1.668-.423.493-1.039.872-1.841 1.133v.04c.942.223 1.679.62 2.209 1.198s.795 1.265.795 2.056c0 1.155-.545 2.113-1.635 2.875-1.09.76-3.078 1.142-5.964 1.142-1.444-.001-2.688-.065-3.733-.196zm3.379-10.975v3.038h1.149c.906 0 1.605-.144 2.095-.431.489-.288.732-.686.732-1.195 0-1.007-.824-1.51-2.474-1.51-.684 0-1.185.032-1.502.098zm0 5.194v3.685c.185.039.641.059 1.37.059.935 0 1.668-.163 2.194-.489.527-.327.789-.798.789-1.412 0-.601-.273-1.059-.817-1.371-.545-.313-1.318-.471-2.319-.471h-1.217zm-12.323 2.391h-4.463l-1.104 3.449h-3.557l4.705-13.21h4.506l4.838 13.21h-3.711zm-3.954-2.234h3.424c-.899-2.581-1.48-4.353-1.746-5.312h-.043l-.707 2.509zm-18.664 5.684h-3.159v-13.21h4.064l3.589 5.398c.685 1.053 1.403 2.389 2.154 4.009h.044c-.177-1.385-.265-3.201-.265-5.449v-3.958h3.159v13.21h-3.623c-2.525-3.888-4.031-6.233-4.517-7.033s-.99-1.734-1.513-2.806h-.088c.103 1.665.155 3.58.155 5.742zm-17.713 0h-3.159v-13.21h4.064l3.59 5.398c.685 1.053 1.402 2.389 2.154 4.009h.043c-.176-1.385-.265-3.201-.265-5.449v-3.958h3.159v13.21h-3.623c-2.525-3.888-4.031-6.233-4.518-7.033-.486-.8-.99-1.734-1.513-2.806h-.088c.103 1.665.155 3.58.155 5.742v4.097zm-12.103-3.45h-4.463l-1.104 3.449h-3.557l4.706-13.21h4.506l4.838 13.21h-3.711zm-3.954-2.234h3.424c-.899-2.581-1.48-4.353-1.745-5.312h-.044l-.707 2.509zm-9.143 2.94.53 2.352c-1.016.404-2.35.608-3.999.608-2.511 0-4.481-.608-5.913-1.82-1.433-1.212-2.15-2.819-2.15-4.825 0-2.115.78-3.812 2.341-5.085 1.561-1.274 3.571-1.911 6.03-1.911 1.657 0 2.945.202 3.866.607l-.707 2.392c-.92-.353-1.922-.53-3.004-.53-1.495 0-2.688.386-3.582 1.157-.895.771-1.344 1.836-1.344 3.194 0 1.326.441 2.375 1.322 3.149.88.773 2.087 1.163 3.626 1.163 1.113 0 2.107-.152 2.984-.451zm-20.432-5.273v2.45h-5.721v3.097h6.384v2.47h-9.807v-13.21h9.498v2.469h-6.075v2.725h5.721zm-26.814-5.193h3.424v5.076h5.854v-5.076h3.424v13.21h-3.424v-5.508h-5.854v5.508h-3.424zm-11.484 13.21v-10.683h-4.175v-2.527h11.84v2.527h-4.241v10.683zm-11.683-8.017v2.45h-5.722v3.097h6.384v2.47h-9.808v-13.21h9.498v2.469h-6.074v2.725h5.722zm-24.584 8.017v-13.034c1.252-.195 2.791-.294 4.617-.294 2.253 0 3.873.33 4.86.99.986.659 1.479 1.604 1.479 2.832 0 .731-.247 1.392-.743 1.982-.497.591-1.141 1.009-1.93 1.251v.079c.928.306 1.598 1.116 2.01 2.43.759 2.365 1.171 3.62 1.237 3.764h-3.491c-.294-.491-.648-1.516-1.06-3.078-.206-.784-.486-1.332-.839-1.646-.354-.312-.92-.47-1.701-.47h-1.061v5.194zm3.38-10.995v3.625h1.414c.854 0 1.528-.173 2.021-.517.493-.343.74-.803.74-1.384 0-.582-.221-1.033-.666-1.349-.446-.317-1.079-.475-1.896-.475-.803.001-1.341.034-1.613.1zm-8.393 2.978v2.45h-5.721v3.097h6.384v2.47h-9.808v-13.21h9.499v2.469h-6.074v2.725h5.72zm-26.814-5.193h3.423v5.076h5.854v-5.076h3.424v13.21h-3.424v-5.508h-5.854v5.508h-3.423z"/><path d="m588.686.33c6.249 0 11.314 5.065 11.314 11.313 0 6.249-5.065 11.314-11.314 11.314-6.247 0-11.314-5.065-11.314-11.314-.001-6.248 5.066-11.313 11.314-11.313zm0 1.87c5.216 0 9.443 4.228 9.443 9.443 0 5.216-4.228 9.444-9.443 9.444-5.214 0-9.442-4.228-9.442-9.444-.001-5.215 4.228-9.443 9.442-9.443zm-2.426 4.332h2.24c1.337 0 2.43 1.046 2.43 2.327s-1.093 2.328-2.43 2.328h-2.24zm-2.085-1.753h.765 1.32 2.764c4.812 0 5.313 6.267 1.511 7.581l3.604 5.87h-2.213l-3.22-5.244h-2.445v5.244h-2.085v-13.451z"/></g></g></svg>