<?xml version="1.0" encoding="utf-8"?>
<!-- Generator: Adobe Illustrator 16.0.0, SVG Export Plug-In . SVG Version: 6.00 Build 0)  -->
<!DOCTYPE svg PUBLIC "-//W3C//DTD SVG 1.1//EN" "http://www.w3.org/Graphics/SVG/1.1/DTD/svg11.dtd">
<svg version="1.1" id="Layer_1" xmlns="http://www.w3.org/2000/svg" xmlns:xlink="http://www.w3.org/1999/xlink" x="0px" y="0px"
	 width="600px" height="151.875px" viewBox="0 0 600 151.875" enable-background="new 0 0 600 151.875" xml:space="preserve">
<g>
	<path fill-rule="evenodd" clip-rule="evenodd" fill="#E48131" d="M445.291,0h40.258c5.461,0,9.93,4.468,9.93,9.929v115.658
		c0,5.462-4.469,9.931-9.93,9.931h-40.258c-5.461,0-9.928-4.469-9.928-9.931V9.929C435.363,4.468,439.83,0,445.291,0L445.291,0z
		 M468.692,22.915v89.733c0,4.238-5.45,4.267-5.45,0V22.915C463.242,18.625,468.692,18.578,468.692,22.915L468.692,22.915z
		 M379.074,0h40.258c5.461,0,9.931,4.468,9.931,9.929v44.207h-26.787V22.915c0-4.337-5.45-4.29-5.45,0v89.733
		c0,4.267,5.45,4.238,5.45,0V81.12h26.787v44.468c0,5.462-4.47,9.931-9.931,9.931h-40.258c-5.461,0-9.928-4.469-9.928-9.931V9.929
		C369.146,4.468,373.613,0,379.074,0L379.074,0z M501.372,135.518V0h37.583l14.144,66.934V0h23.034v135.518h-35.966l-13.74-67.377
		v67.377H501.372L501.372,135.518z"/>
	<path fill-rule="evenodd" clip-rule="evenodd" fill="#F2962E" d="M445.291,0h40.258c5.461,0,9.93,4.468,9.93,9.929v40.522
		c-8.703-0.407-17.645-0.033-26.786,1.146V22.915c0-4.337-5.45-4.29-5.45,0v29.48c-9.119,1.484-18.427,3.764-27.879,6.872V9.929
		C435.363,4.468,439.83,0,445.291,0L445.291,0z M369.146,84.963c9.044-2.799,18.322-6.131,27.879-10.019v-52.03
		c0-4.29,5.45-4.337,5.45,0v31.221h26.787V9.929c0-5.461-4.47-9.929-9.931-9.929h-40.258c-5.461,0-9.928,4.468-9.928,9.929V84.963
		L369.146,84.963z M501.372,50.849c18.466,1.628,35.781,6.816,51.55,15.252L538.955,0h-37.583V50.849L501.372,50.849z
		 M553.099,66.195c8.108,4.354,15.803,9.567,23.034,15.599V0h-23.034V66.195L553.099,66.195z"/>
	<path fill-rule="evenodd" clip-rule="evenodd" fill="#78A64F" d="M220.583,135.518V0h37.996l14.299,66.934V0h23.288v135.518
		h-36.362l-13.891-67.377v67.377H220.583L220.583,135.518z M137.989,135.518V0h37.996l14.299,66.934V0h23.288v135.518H177.21
		l-13.891-67.377v67.377H137.989L137.989,135.518z M9.93,0h40.257c5.462,0,9.93,4.468,9.93,9.929v44.207H33.331V22.915
		c0-4.337-5.451-4.29-5.451,0v89.733c0,4.267,5.451,4.238,5.451,0V81.12h26.787v44.468c0,5.462-4.469,9.931-9.93,9.931H9.93
		c-5.462,0-9.93-4.469-9.93-9.931V9.929C0,4.468,4.468,0,9.93,0L9.93,0z M63.746,135.518L77.208,0h36.921l20.576,135.518H104.44
		l-3.015-26.963h-9.621l-3.322,26.963H63.746L63.746,135.518z M100.781,89.871l-4.182-45.085l-4.465,45.085H100.781L100.781,89.871z
		 M298.635,135.518L312.096,0h36.92l20.577,135.518h-23.951v-13.063c4.595-1.286,6.841-5.746,6.841-10.536V98.912
		c0-1.562-0.466-2.726-2.673-2.726h-15.235c-0.486,0.044-0.656,0.174-0.663,1.031c-0.022,3.297,1.605,4.85,5.335,4.85h5.142
		c0.612,0,0.588,1.588,0,1.588h-6.758c-3.878,0-5.515-2.786-5.515-6.179v-1.953c0-0.472,0.18-0.916,0.927-0.916h11.549l3.867-23.533
		c0.776-4.729-5.908-6.007-6.724-1.073l-3.812,23.021h-1.406l-1.7-25.628c-0.308-4.994-7.12-4.493-6.804,0.29l1.616,24.325v9.983
		h-1.422V89.635c0-1.876-1.534-3.411-3.409-3.411l0,0c-1.878,0-3.412,1.535-3.412,3.411v12.356h-1.362V91.185
		c0-1.908-1.562-3.468-3.467-3.468h-0.003c-1.906,0-3.467,1.56-3.467,3.468v18.508c-0.407,5.092,0.654,10.735,6.764,12.542v13.283
		H298.635L298.635,135.518z"/>
	<path fill-rule="evenodd" clip-rule="evenodd" fill="#95C049" d="M220.583,82.019V0h37.996l14.299,66.934V0h23.288v96.332
		c-15.39-0.169-30.467-2.044-45.572-5.49l-4.68-22.7V89.72C237.509,87.625,229.086,85.052,220.583,82.019L220.583,82.019z M0,85.342
		c9.169-5.775,18.453-10.732,27.879-14.873V22.915c0-4.29,5.451-4.337,5.451,0v31.221h26.787V9.929c0-5.461-4.468-9.929-9.93-9.929
		H9.93C4.468,0,0,4.468,0,9.929V85.342L0,85.342z M71.52,57.263c7.91-1.365,15.937-2.223,24.098-2.571l0.981-9.906l0.913,9.841
		c8.2-0.272,16.534-0.042,25.017,0.693L114.128,0H77.208L71.52,57.263L71.52,57.263z M137.989,57.183
		c22.251,3.431,45.539,10.147,70.113,20.082c1.828,0.739,3.651,1.456,5.469,2.153V0h-23.288v66.934L175.984,0h-37.996V57.183
		L137.989,57.183z M302.529,96.303c3.498-0.068,7.017-0.228,10.557-0.476v-4.643c0-1.908,1.561-3.468,3.467-3.468h0.003
		c1.905,0,3.467,1.56,3.467,3.468v4.049c0.453-0.046,0.906-0.091,1.362-0.139v-5.46c0-1.876,1.534-3.411,3.412-3.411l0,0
		c1.875,0,3.409,1.535,3.409,3.411v4.613c0.474-0.065,0.946-0.135,1.422-0.203v-2.037l-1.616-24.325
		c-0.316-4.782,6.496-5.284,6.804-0.29l1.696,25.546c0.488-0.086,0.979-0.175,1.468-0.265l3.755-22.674
		c0.815-4.935,7.502-3.656,6.724,1.073l-3.325,20.186c5.616-1.198,11.311-2.611,17.095-4.246L349.016,0h-36.92L302.529,96.303
		L302.529,96.303z"/>
	<path fill-rule="evenodd" clip-rule="evenodd" fill="#F2962E" d="M7.891,151.66H4.113l-3.645-13.21h3.667
		c1.031,4.69,1.73,8.048,2.098,10.073h0.044c0.191-1.268,0.95-4.625,2.275-10.073h3.733c1.171,5.344,1.841,8.676,2.01,9.995h0.044
		c0.117-1,0.839-4.331,2.165-9.995h3.49l-3.977,13.21h-3.711c-0.987-4.332-1.539-6.802-1.661-7.405
		c-0.121-0.605-0.246-1.428-0.372-2.474h-0.044c-0.264,1.478-0.552,2.822-0.861,4.038L7.891,151.66L7.891,151.66z M564.718,151.032
		l0.706-2.489c1.275,0.575,2.571,0.862,3.889,0.862c0.759,0,1.352-0.127,1.773-0.382c0.425-0.255,0.635-0.604,0.635-1.049
		c0-0.397-0.192-0.731-0.574-0.999c-0.383-0.269-1.046-0.543-1.988-0.823c-2.844-0.836-4.264-2.149-4.264-3.939
		c0-1.156,0.522-2.111,1.568-2.858s2.437-1.12,4.175-1.12c1.517,0,2.841,0.229,3.976,0.686l-0.771,2.411
		c-1.039-0.432-2.121-0.647-3.248-0.647c-0.692,0-1.234,0.118-1.623,0.354c-0.392,0.234-0.586,0.542-0.586,0.921
		c0,0.347,0.165,0.641,0.492,0.885c0.33,0.245,1.112,0.566,2.357,0.957c1.378,0.432,2.386,0.965,3.022,1.602
		c0.638,0.637,0.953,1.431,0.953,2.378c0,1.215-0.537,2.201-1.611,2.96c-1.075,0.757-2.579,1.137-4.507,1.137
		C567.442,151.875,565.982,151.593,564.718,151.032L564.718,151.032z M550.405,151.032l0.707-2.489
		c1.274,0.575,2.569,0.862,3.888,0.862c0.758,0,1.351-0.127,1.775-0.382c0.423-0.255,0.633-0.604,0.633-1.049
		c0-0.397-0.19-0.731-0.575-0.999c-0.383-0.269-1.044-0.543-1.988-0.823c-2.841-0.836-4.263-2.149-4.263-3.939
		c0-1.156,0.523-2.111,1.57-2.858c1.043-0.747,2.437-1.12,4.174-1.12c1.518,0,2.842,0.229,3.977,0.686l-0.774,2.411
		c-1.037-0.432-2.12-0.647-3.246-0.647c-0.692,0-1.233,0.118-1.625,0.354c-0.39,0.234-0.584,0.542-0.584,0.921
		c0,0.347,0.166,0.641,0.493,0.885c0.327,0.245,1.112,0.566,2.355,0.957c1.377,0.432,2.386,0.965,3.022,1.602
		s0.955,1.431,0.955,2.378c0,1.215-0.537,2.201-1.614,2.96c-1.074,0.757-2.576,1.137-4.507,1.137
		C553.129,151.875,551.672,151.593,550.405,151.032L550.405,151.032z M545.945,143.643v2.45h-5.721v3.097h6.384v2.47h-9.807v-13.21
		h9.497v2.469h-6.074v2.725H545.945L545.945,143.643z M522.245,151.66h-3.157v-13.21h4.064l3.589,5.398
		c0.685,1.053,1.403,2.389,2.153,4.009h0.044c-0.177-1.385-0.265-3.201-0.265-5.449v-3.958h3.159v13.21h-3.624
		c-2.525-3.888-4.031-6.233-4.516-7.033c-0.486-0.8-0.99-1.734-1.515-2.806h-0.088c0.104,1.665,0.154,3.58,0.154,5.742V151.66
		L522.245,151.66z M510.696,138.45h3.423v13.21h-3.423V138.45L510.696,138.45z M495.83,151.032l0.708-2.489
		c1.273,0.575,2.569,0.862,3.888,0.862c0.758,0,1.351-0.127,1.775-0.382c0.422-0.255,0.632-0.604,0.632-1.049
		c0-0.397-0.192-0.731-0.574-0.999c-0.383-0.269-1.046-0.543-1.988-0.823c-2.842-0.836-4.263-2.149-4.263-3.939
		c0-1.156,0.523-2.111,1.567-2.858c1.046-0.747,2.438-1.12,4.175-1.12c1.519,0,2.844,0.229,3.978,0.686l-0.773,2.411
		c-1.037-0.432-2.121-0.647-3.249-0.647c-0.691,0-1.231,0.118-1.622,0.354c-0.39,0.234-0.587,0.542-0.587,0.921
		c0,0.347,0.166,0.641,0.496,0.885c0.327,0.245,1.109,0.566,2.354,0.957c1.378,0.432,2.386,0.965,3.022,1.602
		s0.953,1.431,0.953,2.378c0,1.215-0.537,2.201-1.611,2.96c-1.075,0.757-2.576,1.137-4.507,1.137
		C498.555,151.875,497.098,151.593,495.83,151.032L495.83,151.032z M478.846,138.45h3.424v7.486c0,1.149,0.243,2.028,0.729,2.636
		s1.185,0.912,2.099,0.912c1.928,0,2.895-1.182,2.895-3.548v-7.486h3.423v7.33c0,1.992-0.549,3.505-1.646,4.54
		s-2.691,1.556-4.783,1.556c-4.093,0-6.141-2.046-6.141-6.136V138.45L478.846,138.45z M463.187,151.6v-12.975
		c1.2-0.195,2.687-0.294,4.462-0.294c2.282,0,3.91,0.311,4.883,0.931c0.971,0.621,1.457,1.429,1.457,2.422
		c0,0.62-0.21,1.175-0.633,1.668c-0.424,0.493-1.039,0.872-1.842,1.133v0.04c0.944,0.223,1.679,0.62,2.209,1.198
		c0.531,0.578,0.796,1.265,0.796,2.056c0,1.155-0.544,2.113-1.634,2.875c-1.09,0.76-3.078,1.142-5.966,1.142
		C465.478,151.795,464.232,151.731,463.187,151.6L463.187,151.6z M466.567,140.625v3.038h1.147c0.907,0,1.605-0.144,2.094-0.431
		c0.491-0.288,0.734-0.686,0.734-1.195c0-1.007-0.824-1.51-2.475-1.51C467.384,140.527,466.884,140.559,466.567,140.625
		L466.567,140.625z M466.567,145.819v3.685c0.184,0.039,0.639,0.059,1.369,0.059c0.935,0,1.667-0.163,2.193-0.489
		c0.526-0.327,0.789-0.798,0.789-1.412c0-0.601-0.274-1.059-0.818-1.371c-0.544-0.313-1.317-0.471-2.319-0.471H466.567
		L466.567,145.819z M443.75,151.032l0.705-2.489c1.274,0.575,2.572,0.862,3.89,0.862c0.759,0,1.352-0.127,1.773-0.382
		c0.425-0.255,0.635-0.604,0.635-1.049c0-0.397-0.192-0.731-0.575-0.999c-0.382-0.269-1.046-0.543-1.987-0.823
		c-2.844-0.836-4.264-2.149-4.264-3.939c0-1.156,0.522-2.111,1.568-2.858s2.437-1.12,4.175-1.12c1.517,0,2.841,0.229,3.976,0.686
		l-0.772,2.411c-1.039-0.432-2.12-0.647-3.248-0.647c-0.691,0-1.233,0.118-1.623,0.354c-0.392,0.234-0.586,0.542-0.586,0.921
		c0,0.347,0.166,0.641,0.493,0.885c0.327,0.245,1.112,0.566,2.357,0.957c1.378,0.432,2.386,0.965,3.022,1.602
		s0.953,1.431,0.953,2.378c0,1.215-0.537,2.201-1.612,2.96c-1.074,0.757-2.578,1.137-4.506,1.137
		C446.475,151.875,445.015,151.593,443.75,151.032L443.75,151.032z M439.29,143.643v2.45h-5.723v3.097h6.384v2.47h-9.807v-13.21
		h9.499v2.469h-6.076v2.725H439.29L439.29,143.643z M425.861,144.936c0,2.098-0.692,3.777-2.081,5.041
		c-1.388,1.264-3.212,1.898-5.475,1.898c-2.193,0-3.96-0.632-5.3-1.889c-1.34-1.259-2.011-2.868-2.011-4.835
		c0-2.012,0.699-3.668,2.099-4.969c1.397-1.299,3.202-1.949,5.411-1.949c2.225,0,4.007,0.627,5.347,1.881
		C425.191,141.37,425.861,142.977,425.861,144.936L425.861,144.936z M414.596,145.074c0,1.293,0.349,2.353,1.05,3.175
		c0.699,0.824,1.616,1.235,2.749,1.235c1.165,0,2.092-0.408,2.783-1.226c0.692-0.816,1.04-1.892,1.04-3.224
		c0-1.28-0.348-2.336-1.044-3.165c-0.694-0.829-1.614-1.245-2.758-1.245c-1.147,0-2.071,0.416-2.771,1.248
		C414.944,142.706,414.596,143.773,414.596,145.074L414.596,145.074z M393.769,151.6v-12.975c1.473-0.195,3.047-0.294,4.725-0.294
		c3.176,0,5.453,0.588,6.835,1.768c1.38,1.179,2.067,2.721,2.067,4.621c0,2.248-0.782,3.989-2.354,5.224s-4,1.852-7.275,1.852
		C396.249,151.795,394.916,151.731,393.769,151.6L393.769,151.6z M397.191,140.782v8.604c0.192,0.04,0.604,0.059,1.235,0.059
		c1.703,0,3.021-0.398,3.952-1.191c0.931-0.794,1.395-1.931,1.395-3.413c0-1.36-0.422-2.396-1.273-3.107s-2.076-1.067-3.675-1.067
		C398.155,140.665,397.611,140.703,397.191,140.782L397.191,140.782z M380.428,151.66h-3.425v-5.449l-4.86-7.761h3.934
		c1.805,3.639,2.737,5.533,2.807,5.684c0.336-0.81,1.258-2.705,2.759-5.684h3.888l-5.102,7.644V151.66L380.428,151.66z
		 M358.385,151.66v-13.034c1.251-0.195,2.79-0.294,4.617-0.294c2.253,0,3.871,0.33,4.857,0.99c0.988,0.659,1.481,1.604,1.481,2.832
		c0,0.731-0.247,1.392-0.745,1.982c-0.495,0.591-1.141,1.009-1.928,1.251v0.079c0.926,0.306,1.596,1.116,2.01,2.43
		c0.759,2.365,1.172,3.62,1.236,3.764h-3.489c-0.295-0.491-0.648-1.516-1.062-3.078c-0.206-0.784-0.484-1.332-0.838-1.646
		c-0.354-0.312-0.92-0.47-1.701-0.47h-1.061v5.194H358.385L358.385,151.66z M361.764,140.665v3.625h1.412
		c0.856,0,1.528-0.173,2.023-0.517c0.493-0.343,0.738-0.803,0.738-1.384c0-0.582-0.221-1.033-0.665-1.349
		c-0.446-0.317-1.079-0.475-1.897-0.475C362.572,140.566,362.035,140.599,361.764,140.665L361.764,140.665z M346.899,151.66v-10.683
		h-4.175v-2.527h11.839v2.527h-4.241v10.683H346.899L346.899,151.66z M329.009,151.032l0.708-2.489
		c1.273,0.575,2.569,0.862,3.887,0.862c0.759,0,1.352-0.127,1.773-0.382c0.425-0.255,0.635-0.604,0.635-1.049
		c0-0.397-0.192-0.731-0.575-0.999c-0.383-0.269-1.046-0.543-1.987-0.823c-2.842-0.836-4.264-2.149-4.264-3.939
		c0-1.156,0.521-2.111,1.567-2.858s2.439-1.12,4.175-1.12c1.518,0,2.844,0.229,3.979,0.686l-0.774,2.411
		c-1.039-0.432-2.12-0.647-3.248-0.647c-0.692,0-1.233,0.118-1.623,0.354c-0.389,0.234-0.586,0.542-0.586,0.921
		c0,0.347,0.166,0.641,0.493,0.885c0.329,0.245,1.112,0.566,2.357,0.957c1.377,0.432,2.386,0.965,3.022,1.602
		s0.953,1.431,0.953,2.378c0,1.215-0.537,2.201-1.612,2.96c-1.074,0.757-2.576,1.137-4.506,1.137
		C331.732,151.875,330.275,151.593,329.009,151.032L329.009,151.032z M312.024,138.45h3.423v7.486c0,1.149,0.243,2.028,0.729,2.636
		c0.487,0.607,1.186,0.912,2.099,0.912c1.929,0,2.893-1.182,2.893-3.548v-7.486h3.425v7.33c0,1.992-0.548,3.505-1.645,4.54
		s-2.691,1.556-4.783,1.556c-4.095,0-6.141-2.046-6.141-6.136V138.45L312.024,138.45z M294.111,151.6v-12.975
		c1.472-0.195,3.049-0.294,4.727-0.294c3.173,0,5.454,0.588,6.833,1.768c1.38,1.179,2.069,2.721,2.069,4.621
		c0,2.248-0.785,3.989-2.356,5.224c-1.572,1.234-3.998,1.852-7.275,1.852C296.593,151.795,295.26,151.731,294.111,151.6
		L294.111,151.6z M297.536,140.782v8.604c0.191,0.04,0.604,0.059,1.237,0.059c1.701,0,3.018-0.398,3.949-1.191
		c0.934-0.794,1.396-1.931,1.396-3.413c0-1.36-0.422-2.396-1.273-3.107c-0.85-0.712-2.076-1.067-3.673-1.067
		C298.5,140.665,297.955,140.703,297.536,140.782L297.536,140.782z M279.557,151.66h-3.159v-13.21h4.064l3.59,5.398
		c0.685,1.053,1.402,2.389,2.154,4.009h0.043c-0.176-1.385-0.265-3.201-0.265-5.449v-3.958h3.159v13.21h-3.623
		c-2.526-3.888-4.032-6.233-4.518-7.033s-0.99-1.734-1.513-2.806h-0.088c0.103,1.665,0.155,3.58,0.155,5.742V151.66L279.557,151.66z
		 M268.006,138.45h3.423v13.21h-3.423V138.45L268.006,138.45z M248.569,151.032l0.706-2.489c1.274,0.575,2.57,0.862,3.888,0.862
		c0.759,0,1.351-0.127,1.774-0.382s0.633-0.604,0.633-1.049c0-0.397-0.191-0.731-0.574-0.999c-0.383-0.269-1.046-0.543-1.988-0.823
		c-2.842-0.836-4.263-2.149-4.263-3.939c0-1.156,0.523-2.111,1.568-2.858s2.438-1.12,4.175-1.12c1.517,0,2.842,0.229,3.976,0.686
		l-0.773,2.411c-1.038-0.432-2.121-0.647-3.247-0.647c-0.692,0-1.233,0.118-1.624,0.354c-0.39,0.234-0.585,0.542-0.585,0.921
		c0,0.347,0.166,0.641,0.494,0.885c0.327,0.245,1.111,0.566,2.356,0.957c1.377,0.432,2.386,0.965,3.022,1.602
		c0.637,0.637,0.954,1.431,0.954,2.378c0,1.215-0.538,2.201-1.613,2.96c-1.076,0.757-2.577,1.137-4.506,1.137
		C251.293,151.875,249.835,151.593,248.569,151.032L248.569,151.032z M240.729,138.45h3.423v13.21h-3.423V138.45L240.729,138.45z
		 M225.07,151.6v-12.975c1.2-0.195,2.688-0.294,4.462-0.294c2.283,0,3.91,0.311,4.882,0.931c0.972,0.621,1.458,1.429,1.458,2.422
		c0,0.62-0.209,1.175-0.633,1.668c-0.423,0.493-1.039,0.872-1.841,1.133v0.04c0.942,0.223,1.679,0.62,2.209,1.198
		s0.795,1.265,0.795,2.056c0,1.155-0.545,2.113-1.635,2.875c-1.09,0.76-3.078,1.142-5.964,1.142
		C227.359,151.795,226.115,151.731,225.07,151.6L225.07,151.6z M228.449,140.625v3.038h1.149c0.906,0,1.605-0.144,2.095-0.431
		c0.489-0.288,0.732-0.686,0.732-1.195c0-1.007-0.824-1.51-2.474-1.51C229.267,140.527,228.766,140.559,228.449,140.625
		L228.449,140.625z M228.449,145.819v3.685c0.185,0.039,0.641,0.059,1.37,0.059c0.935,0,1.668-0.163,2.194-0.489
		c0.527-0.327,0.789-0.798,0.789-1.412c0-0.601-0.273-1.059-0.817-1.371c-0.545-0.313-1.318-0.471-2.319-0.471H228.449
		L228.449,145.819z M216.126,148.21h-4.463l-1.104,3.449h-3.557l4.705-13.21h4.506l4.838,13.21h-3.711L216.126,148.21
		L216.126,148.21z M212.172,145.976h3.424c-0.899-2.581-1.48-4.353-1.746-5.312h-0.043l-0.707,2.509L212.172,145.976
		L212.172,145.976z M193.508,151.66h-3.159v-13.21h4.064l3.589,5.398c0.685,1.053,1.403,2.389,2.154,4.009h0.044
		c-0.177-1.385-0.265-3.201-0.265-5.449v-3.958h3.159v13.21h-3.623c-2.525-3.888-4.031-6.233-4.517-7.033s-0.99-1.734-1.513-2.806
		h-0.088c0.103,1.665,0.155,3.58,0.155,5.742V151.66L193.508,151.66z M175.795,151.66h-3.159v-13.21h4.064l3.59,5.398
		c0.685,1.053,1.402,2.389,2.154,4.009h0.043c-0.176-1.385-0.265-3.201-0.265-5.449v-3.958h3.159v13.21h-3.623
		c-2.525-3.888-4.031-6.233-4.518-7.033c-0.486-0.8-0.99-1.734-1.513-2.806h-0.088c0.103,1.665,0.155,3.58,0.155,5.742V151.66
		L175.795,151.66z M163.692,148.21h-4.463l-1.104,3.449h-3.557l4.706-13.21h4.506l4.838,13.21h-3.711L163.692,148.21L163.692,148.21
		z M159.738,145.976h3.424c-0.899-2.581-1.48-4.353-1.745-5.312h-0.044l-0.707,2.509L159.738,145.976L159.738,145.976z
		 M150.595,148.916l0.53,2.352c-1.016,0.404-2.35,0.608-3.999,0.608c-2.511,0-4.481-0.608-5.913-1.82
		c-1.433-1.212-2.15-2.819-2.15-4.825c0-2.115,0.78-3.812,2.341-5.085c1.561-1.274,3.571-1.911,6.03-1.911
		c1.657,0,2.945,0.202,3.866,0.607l-0.707,2.392c-0.92-0.353-1.922-0.53-3.004-0.53c-1.495,0-2.688,0.386-3.582,1.157
		c-0.895,0.771-1.344,1.836-1.344,3.194c0,1.326,0.441,2.375,1.322,3.149c0.88,0.773,2.087,1.163,3.626,1.163
		C148.724,149.367,149.718,149.215,150.595,148.916L150.595,148.916z M130.163,143.643v2.45h-5.721v3.097h6.384v2.47h-9.807v-13.21
		h9.498v2.469h-6.075v2.725H130.163L130.163,143.643z M103.349,138.45h3.424v5.076h5.854v-5.076h3.424v13.21h-3.424v-5.508h-5.854
		v5.508h-3.424V138.45L103.349,138.45z M91.865,151.66v-10.683H87.69v-2.527h11.84v2.527h-4.241v10.683H91.865L91.865,151.66z
		 M80.182,143.643v2.45H74.46v3.097h6.384v2.47h-9.808v-13.21h9.498v2.469H74.46v2.725H80.182L80.182,143.643z M55.598,151.66
		v-13.034c1.252-0.195,2.791-0.294,4.617-0.294c2.253,0,3.873,0.33,4.86,0.99c0.986,0.659,1.479,1.604,1.479,2.832
		c0,0.731-0.247,1.392-0.743,1.982c-0.497,0.591-1.141,1.009-1.93,1.251v0.079c0.928,0.306,1.598,1.116,2.01,2.43
		c0.759,2.365,1.171,3.62,1.237,3.764h-3.491c-0.294-0.491-0.648-1.516-1.06-3.078c-0.206-0.784-0.486-1.332-0.839-1.646
		c-0.354-0.312-0.92-0.47-1.701-0.47h-1.061v5.194H55.598L55.598,151.66z M58.978,140.665v3.625h1.414
		c0.854,0,1.528-0.173,2.021-0.517c0.493-0.343,0.74-0.803,0.74-1.384c0-0.582-0.221-1.033-0.666-1.349
		c-0.446-0.317-1.079-0.475-1.896-0.475C59.788,140.566,59.25,140.599,58.978,140.665L58.978,140.665z M50.585,143.643v2.45h-5.721
		v3.097h6.384v2.47H41.44v-13.21h9.499v2.469h-6.074v2.725H50.585L50.585,143.643z M23.771,138.45h3.423v5.076h5.854v-5.076h3.424
		v13.21h-3.424v-5.508h-5.854v5.508h-3.423V138.45L23.771,138.45z"/>
	<path fill-rule="evenodd" clip-rule="evenodd" fill="#F2962E" d="M588.686,0.33C594.935,0.33,600,5.395,600,11.643
		c0,6.249-5.065,11.314-11.314,11.314c-6.247,0-11.314-5.065-11.314-11.314C577.371,5.395,582.438,0.33,588.686,0.33L588.686,0.33z
		 M588.686,2.2c5.216,0,9.443,4.228,9.443,9.443c0,5.216-4.228,9.444-9.443,9.444c-5.214,0-9.442-4.228-9.442-9.444
		C579.243,6.428,583.472,2.2,588.686,2.2L588.686,2.2z M586.26,6.532h2.24c1.337,0,2.43,1.046,2.43,2.327l0,0
		c0,1.281-1.093,2.328-2.43,2.328h-2.24V6.532L586.26,6.532z M584.175,4.779h0.765h1.32h2.764c4.812,0,5.313,6.267,1.511,7.581
		l3.604,5.87h-2.213l-3.22-5.244h-2.445v5.244h-2.085V4.779L584.175,4.779z"/>
</g>
</svg>
