<?xml version="1.0" encoding="utf-8"?>
<!-- Generator: Adobe Illustrator 22.0.1, SVG Export Plug-In . SVG Version: 6.00 Build 0)  -->
<svg version="1.1" id="Layer_1" xmlns="http://www.w3.org/2000/svg" xmlns:xlink="http://www.w3.org/1999/xlink" x="0px" y="0px"
	 viewBox="0 0 24 24" style="enable-background:new 0 0 24 24;" xml:space="preserve">
<style type="text/css">
	.st0{fill:url(#SVGID_1_);}
	.st1{fill:url(#SVGID_2_);}
	.st2{fill:url(#SVGID_3_);}
	.st3{opacity:0.2;fill:url(#SVGID_4_);enable-background:new    ;}
	.st4{fill:url(#SVGID_5_);}
	.st5{opacity:0.2;fill:url(#SVGID_6_);enable-background:new    ;}
	.st6{fill:url(#SVGID_7_);}
	.st7{opacity:0.2;fill:url(#SVGID_8_);enable-background:new    ;}
	.st8{opacity:0.2;fill:url(#SVGID_9_);enable-background:new    ;}
	.st9{opacity:0.2;fill:url(#SVGID_10_);enable-background:new    ;}
	.st10{fill:url(#SVGID_11_);}
	.st11{fill:url(#SVGID_12_);}
	.st12{fill:url(#SVGID_13_);}
	.st13{fill:url(#SVGID_14_);}
</style>
<g>
	
		<linearGradient id="SVGID_1_" gradientUnits="userSpaceOnUse" x1="0.66" y1="6.7274" x2="23.3609" y2="19.8338" gradientTransform="matrix(1 0 0 -1 0 26)">
		<stop  offset="0" style="stop-color:#0FB8AD"/>
		<stop  offset="0.9995" style="stop-color:#2CB5E8"/>
	</linearGradient>
	<path class="st0" d="M23.8,17.6C23.7,17.5,21.1,16,18,16c-0.3,0-0.6,0-1,0c0.7-0.4,1.5-0.9,2.2-1.4c3.3-2.6,4.7-6.8,4.8-7
		c0.1-0.2,0-0.3-0.1-0.5C23.8,7,23.6,7,23.4,7c-0.1,0-3.5,0.6-6.7,3.4c-0.8,0.8-1.6,1.6-2.3,2.4C14.8,11.7,15,10.4,15,9
		c0-4.8-2.5-8.6-2.6-8.8c-0.2-0.3-0.7-0.3-0.8,0C11.5,0.4,9,4.2,9,9c0,1.4,0.2,2.7,0.5,3.8c-0.7-0.8-1.4-1.7-2.3-2.4
		C4.1,7.6,0.7,7,0.6,7C0.4,7,0.2,7,0.1,7.2C0,7.3,0,7.5,0,7.6c0.1,0.2,1.5,4.4,4.8,7c0.7,0.5,1.4,1,2.2,1.4c-0.3,0-0.6,0-1,0
		c-3.1,0-5.7,1.5-5.8,1.6C0.1,17.7,0,17.8,0,18s0.1,0.3,0.2,0.4S2.9,20,6,20c0.7,0,1.4-0.1,2-0.3c-1,1.3-1,2.7-1,2.8
		c0,0.2,0.1,0.3,0.2,0.4C7.3,23,7.4,23,7.5,23h0.1c0.1,0,1.9-0.6,3.2-2.2c0.2-0.3,0.4-0.6,0.6-0.8v3.5c0,0.3,0.2,0.5,0.5,0.5
		s0.5-0.2,0.5-0.5V20c0.2,0.3,0.4,0.6,0.6,0.8c1.4,1.6,3.2,2.1,3.2,2.2h0.1c0.1,0,0.2,0,0.3-0.1c0.1-0.1,0.2-0.2,0.2-0.4
		c0-0.1,0-1.5-1-2.8c0.7,0.2,1.3,0.3,2,0.3c3.1,0,5.7-1.5,5.8-1.6c0.1-0.1,0.2-0.3,0.2-0.4S23.9,17.7,23.8,17.6z"/>
	
		<linearGradient id="SVGID_2_" gradientUnits="userSpaceOnUse" x1="12.4865" y1="10.4627" x2="23.3238" y2="16.7196" gradientTransform="matrix(1 0 0 -1 0 26)">
		<stop  offset="0" style="stop-color:#0FB8AD"/>
		<stop  offset="0.9995" style="stop-color:#2CB5E8"/>
	</linearGradient>
	<path class="st1" d="M17.4,11.1c2-1.8,4.1-2.6,5.3-2.9c-0.6,1.3-1.9,3.9-4.1,5.6c-1.8,1.4-4.2,2.4-5.5,2.8
		C13.9,15.3,15.5,12.9,17.4,11.1z"/>
	
		<linearGradient id="SVGID_3_" gradientUnits="userSpaceOnUse" x1="8.7423" y1="15.1692" x2="15.226" y2="18.9125" gradientTransform="matrix(1 0 0 -1 0 26)">
		<stop  offset="0" style="stop-color:#0FB8AD"/>
		<stop  offset="0.9995" style="stop-color:#2CB5E8"/>
	</linearGradient>
	<path class="st2" d="M10,9c0-3.3,1.3-6.2,2-7.5c0.7,1.3,2,4.2,2,7.5c0,3.2-1.2,6-1.9,7.3L12,16.4l-0.1-0.1C11.2,15,10,12.2,10,9z"
		/>
	
		<linearGradient id="SVGID_4_" gradientUnits="userSpaceOnUse" x1="8.7082" y1="15.2283" x2="15.1918" y2="18.9717" gradientTransform="matrix(1 0 0 -1 0 26)">
		<stop  offset="0" style="stop-color:#0FB8AD"/>
		<stop  offset="0.9995" style="stop-color:#2CB5E8"/>
	</linearGradient>
	<path class="st3" d="M12,1.5c-0.7,1.3-2,4.2-2,7.5c0,3.2,1.2,6,1.9,7.3l0,0c-0.5-1-1.5-3.2-1.5-5.6c0-2.5,1-4.8,1.5-5.7
		c0.5,1,1.5,3.2,1.5,5.7c0,2.4-0.9,4.6-1.5,5.6l0,0C12.8,15,14,12.2,14,9C14,5.7,12.7,2.8,12,1.5z"/>
	
		<linearGradient id="SVGID_5_" gradientUnits="userSpaceOnUse" x1="4.2335" y1="12.5223" x2="7.8812" y2="14.6284" gradientTransform="matrix(1 0 0 -1 0 26)">
		<stop  offset="0" style="stop-color:#0FB8AD"/>
		<stop  offset="0.9995" style="stop-color:#2CB5E8"/>
	</linearGradient>
	<path class="st4" d="M1.3,8.2c1.2,0.3,3.3,1.1,5.2,2.9c2,1.8,3.6,4.2,4.4,5.5c-1.4-0.5-3.7-1.4-5.5-2.8C3.2,12.1,1.9,9.5,1.3,8.2z"
		/>
	
		<linearGradient id="SVGID_6_" gradientUnits="userSpaceOnUse" x1="4.3334" y1="12.5223" x2="7.9815" y2="14.6285" gradientTransform="matrix(1 0 0 -1 0 26)">
		<stop  offset="0" style="stop-color:#0FB8AD"/>
		<stop  offset="0.9995" style="stop-color:#2CB5E8"/>
	</linearGradient>
	<path class="st5" d="M6.7,14.6C5,13.3,4,11.5,3.5,10.5c0.9,0.2,2.5,0.8,4.1,2.1c1.5,1.3,2.8,3,3.4,4c-0.8-1.4-2.4-3.7-4.4-5.5
		S2.5,8.5,1.4,8.2c0.6,1.3,1.9,3.9,4.1,5.6c0.9,0.7,1.8,1.2,2.8,1.7C7.7,15.3,7.1,15,6.7,14.6z"/>
	
		<linearGradient id="SVGID_7_" gradientUnits="userSpaceOnUse" x1="2.6725" y1="6.1423" x2="9.6275" y2="10.1577" gradientTransform="matrix(1 0 0 -1 0 26)">
		<stop  offset="0" style="stop-color:#0FB8AD"/>
		<stop  offset="0.9995" style="stop-color:#2CB5E8"/>
	</linearGradient>
	<path class="st6" d="M1.6,18c0.9-0.4,2.6-1,4.4-1s3.6,0.4,4.7,0.7C9.6,18.2,7.8,19,6,19S2.6,18.4,1.6,18z"/>
	
		<linearGradient id="SVGID_8_" gradientUnits="userSpaceOnUse" x1="2.6725" y1="6.1423" x2="9.6275" y2="10.1577" gradientTransform="matrix(1 0 0 -1 0 26)">
		<stop  offset="0" style="stop-color:#0FB8AD"/>
		<stop  offset="0.9995" style="stop-color:#2CB5E8"/>
	</linearGradient>
	<path class="st7" d="M3,18.2c0.8-0.3,2.2-0.7,3.7-0.7c1.3,0,2.6,0.2,3.5,0.4c0.2-0.1,0.3-0.2,0.5-0.2C9.6,17.4,7.8,17,6,17
		s-3.5,0.6-4.4,1c0.9,0.4,2.6,1,4.4,1c0.1,0,0.3,0,0.4,0C5,18.9,3.7,18.5,3,18.2z"/>
	
		<linearGradient id="SVGID_9_" gradientUnits="userSpaceOnUse" x1="12.4135" y1="10.4159" x2="23.2508" y2="16.6728" gradientTransform="matrix(1 0 0 -1 0 26)">
		<stop  offset="0" style="stop-color:#0FB8AD"/>
		<stop  offset="0.9995" style="stop-color:#2CB5E8"/>
	</linearGradient>
	<path class="st8" d="M17.3,14.6c1.7-1.3,2.7-3.1,3.2-4.1c-0.9,0.2-2.5,0.8-4.1,2.1c-1.5,1.3-2.8,3-3.4,4c0.8-1.4,2.4-3.7,4.4-5.5
		s4.1-2.6,5.2-2.9c-0.6,1.3-1.9,3.9-4.1,5.6c-0.9,0.7-1.8,1.2-2.8,1.7C16.3,15.3,16.9,15,17.3,14.6z"/>
	
		<linearGradient id="SVGID_10_" gradientUnits="userSpaceOnUse" x1="14.5025" y1="6.2173" x2="21.1975" y2="10.0827" gradientTransform="matrix(1 0 0 -1 0 26)">
		<stop  offset="0" style="stop-color:#0FB8AD"/>
		<stop  offset="0.9995" style="stop-color:#2CB5E8"/>
	</linearGradient>
	<path class="st9" d="M21,18.2c-0.8-0.3-2.2-0.7-3.7-0.7c-1.3,0-2.6,0.2-3.5,0.4c-0.2-0.1-0.3-0.2-0.5-0.2c1.1-0.3,2.9-0.7,4.7-0.7
		c1.8,0,3.5,0.6,4.4,1c-0.9,0.4-2.6,1-4.4,1c-0.1,0-0.3,0-0.4,0C19,18.9,20.3,18.5,21,18.2z"/>
	
		<linearGradient id="SVGID_11_" gradientUnits="userSpaceOnUse" x1="7.8124" y1="4.7981" x2="11.4047" y2="6.8722" gradientTransform="matrix(1 0 0 -1 0 26)">
		<stop  offset="0" style="stop-color:#0FB8AD"/>
		<stop  offset="0.9995" style="stop-color:#2CB5E8"/>
	</linearGradient>
	<path class="st10" d="M10.1,20.2c-0.7,0.8-1.5,1.3-2,1.5c0.1-0.5,0.5-1.3,1.2-1.8c0.8-0.6,1.4-1,1.8-1.3
		C10.9,19.1,10.6,19.6,10.1,20.2z"/>
	
		<linearGradient id="SVGID_12_" gradientUnits="userSpaceOnUse" x1="13.8901" y1="5.5556" x2="14.9494" y2="6.1671" gradientTransform="matrix(1 0 0 -1 0 26)">
		<stop  offset="0" style="stop-color:#0FB8AD"/>
		<stop  offset="0.9995" style="stop-color:#2CB5E8"/>
	</linearGradient>
	<path class="st11" d="M13.9,20.2c-0.5-0.5-0.8-1.1-1-1.6c0.5,0.3,1.1,0.7,1.8,1.3c0.7,0.6,1.1,1.3,1.2,1.8
		C15.3,21.4,14.5,20.9,13.9,20.2z"/>
	
		<linearGradient id="SVGID_13_" gradientUnits="userSpaceOnUse" x1="14.5025" y1="6.2173" x2="21.1975" y2="10.0827" gradientTransform="matrix(1 0 0 -1 0 26)">
		<stop  offset="0" style="stop-color:#0FB8AD"/>
		<stop  offset="0.9995" style="stop-color:#2CB5E8"/>
	</linearGradient>
	<path class="st12" d="M18,19c-1.8,0-3.6-0.8-4.7-1.3c1.1-0.3,2.9-0.7,4.7-0.7s3.5,0.6,4.4,1C21.5,18.4,19.8,19,18,19z"/>
	
		<linearGradient id="SVGID_14_" gradientUnits="userSpaceOnUse" x1="6.4485" y1="22.9142" x2="17.5725" y2="3.6469" gradientTransform="matrix(1 0 0 -1 0 26)">
		<stop  offset="0" style="stop-color:#1CBBE5"/>
		<stop  offset="1" style="stop-color:#6CE3FF"/>
	</linearGradient>
	<path class="st13" d="M23.8,17.6C23.7,17.5,21.1,16,18,16c-0.3,0-0.6,0-1,0c0.7-0.4,1.5-0.9,2.2-1.4c3.3-2.6,4.7-6.8,4.8-7
		c0.1-0.2,0-0.3-0.1-0.5C23.8,7,23.6,7,23.4,7c-0.1,0-3.5,0.6-6.7,3.4c-0.8,0.8-1.6,1.6-2.3,2.4C14.8,11.7,15,10.4,15,9
		c0-4.8-2.5-8.6-2.6-8.8c-0.2-0.3-0.7-0.3-0.8,0C11.5,0.4,9,4.2,9,9c0,1.4,0.2,2.7,0.5,3.8c-0.7-0.8-1.4-1.7-2.3-2.4
		C4.1,7.6,0.7,7,0.6,7C0.4,7,0.2,7,0.1,7.2C0,7.3,0,7.5,0,7.6c0.1,0.2,1.5,4.4,4.8,7c0.7,0.5,1.4,1,2.2,1.4c-0.3,0-0.6,0-1,0
		c-3.1,0-5.7,1.5-5.8,1.6C0.1,17.7,0,17.8,0,18s0.1,0.3,0.2,0.4S2.9,20,6,20c0.7,0,1.4-0.1,2-0.3c-1,1.3-1,2.7-1,2.8
		c0,0.2,0.1,0.3,0.2,0.4C7.3,23,7.4,23,7.5,23h0.1c0.1,0,1.9-0.6,3.2-2.2c0.2-0.3,0.4-0.6,0.6-0.8v3.5c0,0.3,0.2,0.5,0.5,0.5
		s0.5-0.2,0.5-0.5V20c0.2,0.3,0.4,0.6,0.6,0.8c1.4,1.6,3.2,2.1,3.2,2.2h0.1c0.1,0,0.2,0,0.3-0.1c0.1-0.1,0.2-0.2,0.2-0.4
		c0-0.1,0-1.5-1-2.8c0.7,0.2,1.3,0.3,2,0.3c3.1,0,5.7-1.5,5.8-1.6c0.1-0.1,0.2-0.3,0.2-0.4S23.9,17.7,23.8,17.6z"/>
</g>
</svg>
