<svg enable-background="new 0 0 500 500" viewBox="0 0 500 500" xmlns="http://www.w3.org/2000/svg" xmlns:xlink="http://www.w3.org/1999/xlink"><linearGradient id="a" gradientTransform="matrix(1 0 0 -1 0 502)" gradientUnits="userSpaceOnUse" x1="101.9882" x2="355.9101" y1="479.3715" y2="39.5658"><stop offset="0" stop-color="#fff"/><stop offset="0" stop-color="#1cbbe5"/><stop offset=".9995" stop-color="#6ce3ff"/></linearGradient><path d="m322.7 422.6v-199.9h13.6c7.5 0 13.6 6.1 13.6 13.6v127.2c0 32.6 26.4 59.1 59.1 59.1s59.1-26.4 59.1-59.1v-244.5c0-12.8-5.3-24.3-13.7-32.6l-48.2-47.9c-8.7-8.7-22.8-8.7-31.5 0s-8.7 22.8 0 31.5l31.3 31.3-23.1 24.1c-7.5 7.7-7.5 20.2 0 27.9 3.7 4 8.7 5.9 13.7 5.8l26.1-.1v204.5c0 7.5-6.1 13.6-13.6 13.6s-13.6-6.1-13.6-13.6v-127.1c0-32.6-26.4-59.1-59.1-59.1h-13.6v-109c0-20.1-16.3-36.3-36.3-36.3h-191c-20.1 0-36.3 16.3-36.3 36.3v354.3h-4.5c-12.5 0-22.7 10.2-22.7 22.7s10.2 22.7 22.7 22.7h272.6c12.5 0 22.7-10.2 22.7-22.7s-10.2-22.7-22.7-22.7zm-198.1-345.2h132.6c11.1 0 20 8.9 20 20v96.3c0 11.1-8.9 20-20 20h-132.6c-11.1 0-20-8.9-20-20v-96.3c0-11.1 8.9-20 20-20z" fill="url(#a)"/></svg>