<?xml version="1.0" encoding="utf-8"?>
<!-- Generator: Adobe Illustrator 22.0.1, SVG Export Plug-In . SVG Version: 6.00 Build 0)  -->
<svg version="1.1" id="Layer_1" xmlns="http://www.w3.org/2000/svg" xmlns:xlink="http://www.w3.org/1999/xlink" x="0px" y="0px"
	 viewBox="0 0 56.7 56.7" style="enable-background:new 0 0 56.7 56.7;" xml:space="preserve">
<style type="text/css">
	.st0{fill:#FFFFFF;}
</style>
<g>
	<circle class="st0" cx="28.1" cy="28.6" r="5"/>
	<path class="st0" d="M34.4,16.2H21.8c-1.8,0-3.4,0.6-4.5,1.6c-1,1-1.6,2.6-1.6,4.5v12.6c0,1.8,0.6,3.4,1.7,4.6
		c1.1,1,2.6,1.6,4.5,1.6h12.5c1.8,0,3.4-0.6,4.5-1.6c1.1-1,1.7-2.6,1.7-4.5V22.4c0-1.8-0.6-3.3-1.6-4.5
		C37.8,16.8,36.4,16.2,34.4,16.2z M28.1,36.4c-4.3,0-7.8-3.5-7.8-7.8c0-4.3,3.5-7.8,7.8-7.8s7.9,3.4,7.9,7.8S32.5,36.4,28.1,36.4z
		 M36.2,22.3c-1,0-1.8-0.8-1.8-1.8s0.8-1.8,1.8-1.8c1,0,1.8,0.8,1.8,1.8S37.3,22.3,36.2,22.3z"/>
	<path class="st0" d="M28.3,0.2C12.8,0.2,0.2,12.8,0.2,28.3s12.6,28.1,28.1,28.1s28.1-12.6,28.1-28.1C56.6,12.8,43.9,0.2,28.3,0.2z
		 M43.3,35c0,2.6-0.9,4.9-2.5,6.5c-1.6,1.6-3.9,2.4-6.4,2.4H21.9c-2.5,0-4.8-0.8-6.4-2.4C13.8,39.9,13,37.6,13,35V22.4
		c0-5.3,3.5-8.9,8.9-8.9h12.6c2.6,0,4.8,0.9,6.4,2.5c1.6,1.6,2.4,3.8,2.4,6.4C43.3,22.4,43.3,35,43.3,35z"/>
</g>
</svg>
