<svg enable-background="new 0 0 56.7 56.7" viewBox="0 0 56.7 56.7" xmlns="http://www.w3.org/2000/svg"><g fill="#fff"><circle cx="28.1" cy="28.6" r="5"/><path d="m34.4 16.2h-12.6c-1.8 0-3.4.6-4.5 1.6-1 1-1.6 2.6-1.6 4.5v12.6c0 1.8.6 3.4 1.7 4.6 1.1 1 2.6 1.6 4.5 1.6h12.5c1.8 0 3.4-.6 4.5-1.6s1.7-2.6 1.7-4.5v-12.6c0-1.8-.6-3.3-1.6-4.5-1.2-1.1-2.6-1.7-4.6-1.7zm-6.3 20.2c-4.3 0-7.8-3.5-7.8-7.8s3.5-7.8 7.8-7.8 7.9 3.4 7.9 7.8-3.5 7.8-7.9 7.8zm8.1-14.1c-1 0-1.8-.8-1.8-1.8s.8-1.8 1.8-1.8 1.8.8 1.8 1.8-.7 1.8-1.8 1.8z"/><path d="m28.3.2c-15.5 0-28.1 12.6-28.1 28.1s12.6 28.1 28.1 28.1 28.1-12.6 28.1-28.1c.2-15.5-12.5-28.1-28.1-28.1zm15 34.8c0 2.6-.9 4.9-2.5 6.5s-3.9 2.4-6.4 2.4h-12.5c-2.5 0-4.8-.8-6.4-2.4-1.7-1.6-2.5-3.9-2.5-6.5v-12.6c0-5.3 3.5-8.9 8.9-8.9h12.6c2.6 0 4.8.9 6.4 2.5s2.4 3.8 2.4 6.4z"/></g></svg>