<?xml version="1.0" encoding="utf-8"?>
<!-- Generator: Adobe Illustrator 22.0.1, SVG Export Plug-In . SVG Version: 6.00 Build 0)  -->
<svg version="1.1" id="Layer_1" xmlns="http://www.w3.org/2000/svg" xmlns:xlink="http://www.w3.org/1999/xlink" x="0px" y="0px"
	 viewBox="0 0 24 24" style="enable-background:new 0 0 24 24;" xml:space="preserve">
<style type="text/css">
	.st0{fill:url(#SVGID_1_);}
	.st1{fill:url(#SVGID_2_);}
	.st2{fill:url(#SVGID_3_);}
	.st3{fill:url(#SVGID_4_);}
	.st4{fill:url(#SVGID_5_);}
</style>
<g id="Layer_1_1_">
	<g>
		<linearGradient id="SVGID_1_" gradientUnits="userSpaceOnUse" x1="5.9703" y1="1.706" x2="17.9484" y2="22.4527">
			<stop  offset="0" style="stop-color:#1CBBE5"/>
			<stop  offset="1" style="stop-color:#6CE3FF"/>
		</linearGradient>
		<path class="st0" d="M17.6,22.2H6.4c-1.9,0-3.4-1.5-3.4-3.4V5.4C3,3.5,4.5,2,6.4,2h11.2c1.9,0,3.4,1.5,3.4,3.4v13.4
			C20.9,20.7,19.4,22.2,17.6,22.2z M6.4,4.2c-0.6,0-1.1,0.5-1.1,1.1v13.4c0,0.6,0.5,1.1,1.1,1.1h11.2c0.6,0,1.1-0.5,1.1-1.1V5.4
			c0-0.6-0.5-1.1-1.1-1.1H6.4z"/>
	</g>
	<g>
		<linearGradient id="SVGID_2_" gradientUnits="userSpaceOnUse" x1="10.5595" y1="7.9747" x2="13.3593" y2="12.8242">
			<stop  offset="0" style="stop-color:#1CBBE5"/>
			<stop  offset="1" style="stop-color:#6CE3FF"/>
		</linearGradient>
		<path class="st1" d="M16.4,11h-9c-0.3,0-0.6-0.3-0.6-0.6c0-0.3,0.3-0.6,0.6-0.6h9c0.3,0,0.6,0.3,0.6,0.6C17,10.7,16.7,11,16.4,11z
			"/>
	</g>
	<g>
		<linearGradient id="SVGID_3_" gradientUnits="userSpaceOnUse" x1="10.5595" y1="4.6149" x2="13.3593" y2="9.4644">
			<stop  offset="0" style="stop-color:#1CBBE5"/>
			<stop  offset="1" style="stop-color:#6CE3FF"/>
		</linearGradient>
		<path class="st2" d="M16.4,7.6h-9C7.2,7.6,6.9,7.3,6.9,7c0-0.3,0.3-0.6,0.6-0.6h9C16.7,6.5,17,6.7,17,7C17,7.3,16.7,7.6,16.4,7.6z
			"/>
	</g>
	<g>
		<linearGradient id="SVGID_4_" gradientUnits="userSpaceOnUse" x1="10.5595" y1="11.3345" x2="13.3593" y2="16.1839">
			<stop  offset="0" style="stop-color:#1CBBE5"/>
			<stop  offset="1" style="stop-color:#6CE3FF"/>
		</linearGradient>
		<path class="st3" d="M16.4,14.3h-9c-0.3,0-0.6-0.3-0.6-0.6s0.3-0.6,0.6-0.6h9c0.3,0,0.6,0.3,0.6,0.6S16.7,14.3,16.4,14.3z"/>
	</g>
	<g>
		<linearGradient id="SVGID_5_" gradientUnits="userSpaceOnUse" x1="10.5595" y1="14.6942" x2="13.3593" y2="19.5437">
			<stop  offset="0" style="stop-color:#1CBBE5"/>
			<stop  offset="1" style="stop-color:#6CE3FF"/>
		</linearGradient>
		<path class="st4" d="M16.4,17.7h-9c-0.3,0-0.6-0.3-0.6-0.6s0.3-0.6,0.6-0.6h9c0.3,0,0.6,0.3,0.6,0.6S16.7,17.7,16.4,17.7z"/>
	</g>
</g>
</svg>
