<svg enable-background="new 0 0 24 24" viewBox="0 0 24 24" xmlns="http://www.w3.org/2000/svg" xmlns:xlink="http://www.w3.org/1999/xlink"><linearGradient id="a"><stop offset="0" stop-color="#1cbbe5"/><stop offset="1" stop-color="#6ce3ff"/></linearGradient><linearGradient id="b" gradientUnits="userSpaceOnUse" x1="5.9703" x2="17.9484" xlink:href="#a" y1="1.706" y2="22.4527"/><linearGradient id="c" gradientUnits="userSpaceOnUse" x1="10.5595" x2="13.3593" xlink:href="#a" y1="7.9747" y2="12.8242"/><linearGradient id="d" gradientUnits="userSpaceOnUse" x1="10.5595" x2="13.3593" xlink:href="#a" y1="4.6149" y2="9.4644"/><linearGradient id="e" gradientUnits="userSpaceOnUse" x1="10.5595" x2="13.3593" xlink:href="#a" y1="11.3345" y2="16.1839"/><linearGradient id="f" gradientUnits="userSpaceOnUse" x1="10.5595" x2="13.3593" xlink:href="#a" y1="14.6942" y2="19.5437"/><path d="m17.6 22.2h-11.2c-1.9 0-3.4-1.5-3.4-3.4v-13.4c0-1.9 1.5-3.4 3.4-3.4h11.2c1.9 0 3.4 1.5 3.4 3.4v13.4c-.1 1.9-1.6 3.4-3.4 3.4zm-11.2-18c-.6 0-1.1.5-1.1 1.1v13.4c0 .6.5 1.1 1.1 1.1h11.2c.6 0 1.1-.5 1.1-1.1v-13.3c0-.6-.5-1.1-1.1-1.1h-11.2z" fill="url(#b)"/><path d="m16.4 11h-9c-.3 0-.6-.3-.6-.6s.3-.6.6-.6h9c.3 0 .6.3.6.6s-.3.6-.6.6z" fill="url(#c)"/><path d="m16.4 7.6h-9c-.2 0-.5-.3-.5-.6s.3-.6.6-.6h9c.2.1.5.3.5.6s-.3.6-.6.6z" fill="url(#d)"/><path d="m16.4 14.3h-9c-.3 0-.6-.3-.6-.6s.3-.6.6-.6h9c.3 0 .6.3.6.6s-.3.6-.6.6z" fill="url(#e)"/><path d="m16.4 17.7h-9c-.3 0-.6-.3-.6-.6s.3-.6.6-.6h9c.3 0 .6.3.6.6s-.3.6-.6.6z" fill="url(#f)"/></svg>