<svg enable-background="new 0 0 500 500" viewBox="0 0 500 500" xmlns="http://www.w3.org/2000/svg" xmlns:xlink="http://www.w3.org/1999/xlink"><linearGradient id="a"><stop offset="0" stop-color="#1cbbe5"/><stop offset="1" stop-color="#6ce3ff"/></linearGradient><linearGradient id="b" gradientUnits="userSpaceOnUse" x1="329.9881" x2="416.9637" xlink:href="#a" y1="313.7462" y2="464.3923"/><linearGradient id="c" gradientUnits="userSpaceOnUse" x1="76.5678" x2="181.7873" xlink:href="#a" y1="296.3147" y2="478.5601"/><linearGradient id="d" gradientUnits="userSpaceOnUse" x1="156.1105" x2="343.8312" xlink:href="#a" y1="29.618" y2="354.7599"/><path d="m355.3 500-95.2-143 31.9-21.3 55.4 83.3 17.9-42.7h46.2l-51.2-76.5 32.1-21.4 90.8 136.4h-92.4z" fill="url(#b)"/><path d="m144.7 500-35.6-85.2h-92.4l90.9-136.4 32 21.4-51.1 76.5h46.2l17.8 42.7 55.5-83.3 31.9 21.3z" fill="url(#c)"/><path d="m250 384.4c-12.2 0-24.6-3.8-35-11.4l-30.8-22.2-37.5-6c-25.4-4.1-45.4-24-49.4-49.4l-6-37.5-22.2-30.8c-15-20.9-15-49 0-69.9l22.2-30.8 6-37.5c4.1-25.4 24-45.4 49.4-49.4l37.5-6 30.8-22.2c20.9-15.2 49-15 69.9 0l30.8 22.2 37.5 6c25.4 4.1 45.4 24 49.4 49.4l6 37.5 22.2 30.8c15 20.9 15 49 0 69.9l-22.2 30.8-6 37.5c-4.1 25.4-24 45.4-49.4 49.4l-37.5 6-30.8 22.2c-10.4 7.6-22.7 11.4-34.9 11.4zm0-346c-4.4 0-8.7 1.4-12.5 4.1l-38.1 27.4-46.5 7.6c-9.1 1.4-16.1 8.6-17.7 17.7l-7.6 46.5-27.5 38.2c-5.3 7.4-5.3 17.6 0 25l27.5 38.2 7.6 46.5c1.4 9.1 8.6 16.1 17.7 17.7l46.5 7.6 38.2 27.5c7.4 5.3 17.4 5.3 25 0l38.2-27.5 46.5-7.6c9.1-1.4 16.1-8.6 17.7-17.7l7.6-46.5 27.5-38.2c5.3-7.4 5.3-17.6 0-25l-27.9-38.3-7.6-46.6c-1.4-9.1-8.6-16.1-17.7-17.7l-46.5-7.6-38.2-27.5c-3.5-2.5-7.9-3.8-12.2-3.8z" fill="url(#d)"/></svg>