<?xml version="1.0" encoding="utf-8"?>
<!-- Generator: Adobe Illustrator 22.0.1, SVG Export Plug-In . SVG Version: 6.00 Build 0)  -->
<svg version="1.1" id="Layer_1" xmlns="http://www.w3.org/2000/svg" xmlns:xlink="http://www.w3.org/1999/xlink" x="0px" y="0px"
	 viewBox="0 0 512 512" style="enable-background:new 0 0 512 512;" xml:space="preserve">
<style type="text/css">
	.st0{fill:#FFFFFF;}
</style>
<path class="st0" d="M256,512C114.6,512,0,397.4,0,256S114.6,0,256,0s256,114.6,256,256S397.4,512,256,512z M131.2,383.9h57.3V213.5
	h-57.3V383.9z M159.9,128.1c-17.6,0-31.9,13.5-31.9,30.1c0,16.6,14.3,30.1,31.9,30.1c17.6,0,31.9-13.4,31.9-30.1
	C191.8,141.5,177.6,128.1,159.9,128.1z M384,287c0-67.3-38.6-78.9-62.3-78.9c-23.7,0-36.8,8.3-51.8,28.3v-23h-57.2v170.5h57.2v-92.6
	c0-19.5,9-38.7,30.4-38.7c21.4,0,26.7,19.1,26.7,38.2v93.1h57V287z"/>
</svg>
