<svg enable-background="new 0 0 24 24" viewBox="0 0 24 24" xmlns="http://www.w3.org/2000/svg" xmlns:xlink="http://www.w3.org/1999/xlink"><linearGradient id="a" gradientUnits="userSpaceOnUse" x1="6.5499" x2="17.4501" y1="2.5602" y2="21.4398"><stop offset="0" stop-color="#1cbbe5"/><stop offset="1" stop-color="#6ce3ff"/></linearGradient><path d="m19.2 4h-14.4c-1.5 0-2.8 1.3-2.8 2.8v10.4c0 1.5 1.3 2.8 2.8 2.8h14.4c1.5 0 2.8-1.3 2.8-2.8v-10.4c0-1.5-1.3-2.8-2.8-2.8zm.8 13.2c0 .4-.4.8-.8.8h-14.4c-.4 0-.8-.4-.8-.8v-10.4c0-.4.4-.8.8-.8h14.4c.4 0 .8.4.8.8zm-10-6.2c.8 0 1.5-.7 1.5-1.5s-.7-1.5-1.5-1.5-1.5.7-1.5 1.5.7 1.5 1.5 1.5zm-3 2.2v1.8h6v-1.8c-1.8-1.2-4.2-1.2-6 0z" fill="url(#a)"/></svg>