<svg id="Layer_1" data-name="Layer 1" xmlns="http://www.w3.org/2000/svg" viewBox="0 0 726.07 219.59"><defs><style>.cls-1,.cls-5{fill:#00246b;}.cls-2{fill:#fff;}.cls-3,.cls-4{fill:#6ce3ff;}.cls-4{stroke:#6ce3ff;stroke-miterlimit:10;stroke-width:0.5px;}.cls-11,.cls-5{font-size:154px;letter-spacing:-0.07em;}.cls-5{font-family:DINAlternate-Bold, DIN Alternate;font-weight:700;}.cls-6{letter-spacing:-0.09em;}.cls-7{letter-spacing:-0.08em;}.cls-8{font-size:104.6px;letter-spacing:-0.08em;}.cls-9{letter-spacing:-0.1em;}.cls-10{letter-spacing:-0.07em;}</style></defs><title>SLGP-brandmark</title><rect class="cls-1" x="0.08" y="-0.32" width="149.18" height="219.84"/><path class="cls-2" d="M73,59.09Q65.53,50,49.81,47.82q-8-1-12.57-1.77-8.28-1.53-12-5.52a12.31,12.31,0,0,1-3.76-8.74q.15-8.05,5.6-12.11,5.21-3.91,13-3.91a51.2,51.2,0,0,1,27.68,8.58L77.18,10.4C66.91,3,54.9.31,41,0,29.44.1,20.44,1.94,14.16,7.87q-9.75,9-9.74,23.61a29.69,29.69,0,0,0,7.74,20.71q7.52,8.28,21.93,10.65,8.05,1.15,14.8,2.07,14.72,2.53,14.57,15-.32,15.27-22.08,15.57Q23,95.36,9.63,84.39L.08,95.17v.2c0,1,0,1.9,0,2.79v.25q17.37,14,41.14,14Q79.63,112,80.48,79.94A31.68,31.68,0,0,0,73,59.09Z"/><path class="cls-2" d="M77.9-.26H94.85V95.25h54.44v16H77.9Z"/><path class="cls-3" d="M39.79,158.31H79.51v22.78q-.32,16.78-11.5,28.14c-7.52,7.51-17,10.15-28.38,10.35-8.79-.2-16.12-1.13-22-5.22q-9-5.9-13-13.64-1.23-2.53-2.23-4.83a31.93,31.93,0,0,1-1.53-6Q-.32,183.17-.31,164q0-19.49,1.15-26.07A30.84,30.84,0,0,1,4.6,127.26q4.06-7.74,13-13.8c5.88-4.09,13.21-5.27,22-5.37,10.78.1,19.58,2.38,26.38,8.67A42.13,42.13,0,0,1,78.89,140.3H61a24.6,24.6,0,0,0-7.51-11.51,22.17,22.17,0,0,0-13.8-4.67,23.44,23.44,0,0,0-10.28,2.37,21.5,21.5,0,0,0-7,5.75,18.48,18.48,0,0,0-4.37,9.28q-1.23,6-1.23,22.47t1.23,22.31a18.52,18.52,0,0,0,4.37,9.43,19.85,19.85,0,0,0,7.05,5.6,19.86,19.86,0,0,0,10.28,2.53A21.6,21.6,0,0,0,56,197.11q6.44-6.44,6.59-16.94v-5.83H39.79Z"/><path class="cls-4" d="M149,161.27V122.4a24.32,24.32,0,0,0-5.71-5.78A34,34,0,0,0,131,110.09a64.44,64.44,0,0,0-12.64-1.21H78.16v110.7H95v-43.2h25.57q17.13-.3,26-10.93c.87-1,1.68-2,2.42-3.1A9.69,9.69,0,0,1,149,161.27ZM134,154.74q-4.72,5.63-14.09,5.77H95V124.75h24.28a21.12,21.12,0,0,1,12,3.11,14,14,0,0,1,5.33,5.39,21.42,21.42,0,0,1,1.83,9.34A18.7,18.7,0,0,1,134,154.74Z"/><text class="cls-5" transform="translate(164.13 115.35)">Sa<tspan class="cls-6" x="142.25" y="0">r</tspan><tspan class="cls-7" x="187.85" y="0">ah Lee</tspan><tspan class="cls-8"><tspan x="0" y="100">Gossett </tspan><tspan class="cls-9" x="289.24" y="100">P</tspan><tspan class="cls-10" x="340.8" y="100">arrish</tspan><tspan class="cls-11" x="558.9" y="100" xml:space="preserve">    </tspan></tspan></text></svg>